<svg width="20" height="21" viewBox="0 0 20 21" fill="none" xmlns="http://www.w3.org/2000/svg">
<path fill-rule="evenodd" clip-rule="evenodd" d="M9.99967 1.37988C4.93717 1.37988 0.833008 5.48405 0.833008 10.5465C0.833008 15.609 4.93717 19.7132 9.99967 19.7132C15.0622 19.7132 19.1663 15.609 19.1663 10.5465C19.1663 5.48405 15.0622 1.37988 9.99967 1.37988ZM13.973 8.99655C14.0462 8.91292 14.1019 8.8155 14.1368 8.71002C14.1718 8.60455 14.1853 8.49314 14.1766 8.38237C14.1678 8.2716 14.137 8.16369 14.086 8.06499C14.0349 7.96629 13.9647 7.8788 13.8793 7.80767C13.7939 7.73653 13.6952 7.68319 13.5889 7.65077C13.4826 7.61835 13.3709 7.60752 13.2604 7.61891C13.1499 7.63029 13.0427 7.66367 12.9453 7.71708C12.8479 7.77048 12.7621 7.84284 12.693 7.92988L9.10968 12.229L7.25551 10.3741C7.09834 10.2223 6.88784 10.1383 6.66934 10.1402C6.45084 10.1421 6.24183 10.2297 6.08733 10.3842C5.93282 10.5387 5.84518 10.7477 5.84328 10.9662C5.84138 11.1847 5.92538 11.3952 6.07718 11.5524L8.57718 14.0524C8.65906 14.1342 8.75709 14.1981 8.86502 14.2399C8.97295 14.2818 9.08842 14.3007 9.20407 14.2954C9.31971 14.2902 9.43299 14.2609 9.53668 14.2094C9.64038 14.158 9.73222 14.0855 9.80634 13.9965L13.973 8.99655Z" fill="#27AE60"/>
</svg>
