<svg width="20" height="20" viewBox="0 0 20 20" fill="none" xmlns="http://www.w3.org/2000/svg">
<path d="M3.33333 14.1667C3.79357 14.1667 4.16667 13.7936 4.16667 13.3333C4.16667 12.8731 3.79357 12.5 3.33333 12.5C2.8731 12.5 2.5 12.8731 2.5 13.3333C2.5 13.7936 2.8731 14.1667 3.33333 14.1667Z" stroke="#BDBDBD" stroke-width="2"/>
<path d="M3.33333 7.50065C3.79357 7.50065 4.16667 7.12755 4.16667 6.66732C4.16667 6.20708 3.79357 5.83398 3.33333 5.83398C2.8731 5.83398 2.5 6.20708 2.5 6.66732C2.5 7.12755 2.8731 7.50065 3.33333 7.50065Z" stroke="#BDBDBD" stroke-width="2"/>
<path d="M9.99984 14.1667C10.4601 14.1667 10.8332 13.7936 10.8332 13.3333C10.8332 12.8731 10.4601 12.5 9.99984 12.5C9.5396 12.5 9.1665 12.8731 9.1665 13.3333C9.1665 13.7936 9.5396 14.1667 9.99984 14.1667Z" stroke="#BDBDBD" stroke-width="2"/>
<path d="M9.99984 7.50065C10.4601 7.50065 10.8332 7.12755 10.8332 6.66732C10.8332 6.20708 10.4601 5.83398 9.99984 5.83398C9.5396 5.83398 9.1665 6.20708 9.1665 6.66732C9.1665 7.12755 9.5396 7.50065 9.99984 7.50065Z" stroke="#BDBDBD" stroke-width="2"/>
<path d="M16.6668 14.1667C17.1271 14.1667 17.5002 13.7936 17.5002 13.3333C17.5002 12.8731 17.1271 12.5 16.6668 12.5C16.2066 12.5 15.8335 12.8731 15.8335 13.3333C15.8335 13.7936 16.2066 14.1667 16.6668 14.1667Z" stroke="#BDBDBD" stroke-width="2"/>
<path d="M16.6668 7.50065C17.1271 7.50065 17.5002 7.12755 17.5002 6.66732C17.5002 6.20708 17.1271 5.83398 16.6668 5.83398C16.2066 5.83398 15.8335 6.20708 15.8335 6.66732C15.8335 7.12755 16.2066 7.50065 16.6668 7.50065Z" stroke="#BDBDBD" stroke-width="2"/>
</svg>
