<svg width="16" height="17" viewBox="0 0 16 17" fill="none" xmlns="http://www.w3.org/2000/svg">
<path d="M14.5 7.4375H12.8125V5.6625C12.8125 5.38594 12.5891 5.1625 12.3125 5.1625H7.39062L5.55781 3.40937C5.53449 3.38754 5.50382 3.37527 5.47188 3.375H1.5C1.22344 3.375 1 3.59844 1 3.875V13.125C1 13.4016 1.22344 13.625 1.5 13.625H12.4062C12.6094 13.625 12.7937 13.5016 12.8703 13.3125L14.9641 8.125C14.9875 8.06563 15 8.00156 15 7.9375C15 7.66094 14.7766 7.4375 14.5 7.4375ZM2.125 4.5H5.07031L6.93906 6.2875H11.6875V7.4375H3.71875C3.51562 7.4375 3.33125 7.56094 3.25469 7.75L2.125 10.55V4.5ZM12.0516 12.5H2.48438L4.09844 8.5H13.6672L12.0516 12.5Z" fill="#2D3648"/>
</svg>
