<svg width="17" height="16" viewBox="0 0 17 16" fill="none" xmlns="http://www.w3.org/2000/svg">
<path d="M14.7522 5.51739L10.785 4.94083L9.01158 1.34551C8.96314 1.24708 8.88345 1.16739 8.78501 1.11895C8.53814 0.997076 8.23814 1.09864 8.1147 1.34551L6.34126 4.94083L2.37408 5.51739C2.2647 5.53301 2.1647 5.58458 2.08814 5.6627C1.99558 5.75784 1.94458 5.88583 1.94633 6.01855C1.94809 6.15127 2.00247 6.27786 2.09751 6.37051L4.96783 9.16895L4.2897 13.1205C4.2738 13.2124 4.28397 13.307 4.31906 13.3934C4.35416 13.4798 4.41277 13.5547 4.48825 13.6095C4.56373 13.6644 4.65306 13.6969 4.74611 13.7036C4.83916 13.7102 4.93221 13.6906 5.0147 13.6471L8.56314 11.7815L12.1116 13.6471C12.2085 13.6986 12.321 13.7158 12.4288 13.6971C12.7006 13.6502 12.8835 13.3924 12.8366 13.1205L12.1585 9.16895L15.0288 6.37051C15.1069 6.29395 15.1585 6.19395 15.1741 6.08458C15.2163 5.81114 15.0256 5.55801 14.7522 5.51739ZM10.9506 8.7752L11.5147 12.0611L8.56314 10.5111L5.61158 12.0627L6.17564 8.77676L3.78814 6.44864L7.08814 5.96895L8.56314 2.97989L10.0381 5.96895L13.3381 6.44864L10.9506 8.7752Z" fill="#4F4F4F"/>
</svg>
