<svg width="16" height="16" viewBox="0 0 16 16" fill="none" xmlns="http://www.w3.org/2000/svg">
<path fill-rule="evenodd" clip-rule="evenodd" d="M11.4999 10.9999C11.3673 10.9999 11.2401 10.9472 11.1464 10.8534C11.0526 10.7596 10.9999 10.6325 10.9999 10.4999L10.9999 1.49986C10.9999 1.36725 11.0526 1.24007 11.1464 1.1463C11.2401 1.05253 11.3673 0.999857 11.4999 0.999857C11.6325 0.999857 11.7597 1.05253 11.8535 1.1463C11.9472 1.24007 11.9999 1.36725 11.9999 1.49986L11.9999 10.4999C11.9999 10.6325 11.9472 10.7596 11.8535 10.8534C11.7597 10.9472 11.6325 10.9999 11.4999 10.9999ZM7.49992 10.9999C7.36731 10.9999 7.24013 10.9472 7.14636 10.8534C7.0526 10.7596 6.99992 10.6325 6.99992 10.4999L6.99992 1.49986C6.99992 1.36725 7.0526 1.24007 7.14636 1.1463C7.24013 1.05253 7.36731 0.999857 7.49992 0.999857C7.63252 0.999857 7.7597 1.05253 7.85347 1.1463C7.94724 1.24007 7.99992 1.36725 7.99992 1.49986L7.99992 10.4999C7.99992 10.6325 7.94724 10.7596 7.85347 10.8534C7.7597 10.9472 7.63253 10.9999 7.49992 10.9999ZM3.49992 10.9999C3.36731 10.9999 3.24013 10.9472 3.14636 10.8534C3.0526 10.7596 2.99992 10.6325 2.99992 10.4999L2.99992 1.49986C2.99992 1.36725 3.0526 1.24007 3.14636 1.1463C3.24013 1.05254 3.36731 0.999857 3.49992 0.999857C3.63252 0.999857 3.7597 1.05253 3.85347 1.1463C3.94724 1.24007 3.99992 1.36725 3.99992 1.49986L3.99992 10.4999C3.99992 10.6325 3.94724 10.7596 3.85347 10.8534C3.7597 10.9472 3.63253 10.9999 3.49992 10.9999ZM2.14592 12.1459C2.19236 12.0993 2.24754 12.0624 2.30828 12.0371C2.36903 12.0119 2.43415 11.999 2.49992 11.999C2.56568 11.999 2.63081 12.0119 2.69155 12.0371C2.7523 12.0624 2.80747 12.0993 2.85392 12.1459L4.35392 13.6459C4.40048 13.6923 4.43742 13.7475 4.46263 13.8082C4.48784 13.869 4.50081 13.9341 4.50081 13.9999C4.50081 14.0656 4.48784 14.1307 4.46263 14.1915C4.43742 14.2522 4.40048 14.3074 4.35392 14.3539L3.85392 14.8539C3.80743 14.9003 3.75224 14.9372 3.6915 14.9624C3.63076 14.9875 3.56566 15.0005 3.49992 15.0005C3.43417 15.0005 3.36907 14.9875 3.30833 14.9624C3.24759 14.9372 3.19241 14.9003 3.14592 14.8539C3.09943 14.8074 3.06255 14.7522 3.03739 14.6914C3.01223 14.6307 2.99929 14.5656 2.99929 14.4999C2.99929 14.4341 3.01223 14.369 3.03739 14.3083C3.06255 14.2475 3.09943 14.1923 3.14592 14.1459L3.29292 13.9999L2.14592 12.8539C2.09935 12.8074 2.06241 12.7522 2.0372 12.6915C2.012 12.6307 1.99902 12.5656 1.99902 12.4999C1.99902 12.4341 2.012 12.369 2.0372 12.3082C2.06241 12.2475 2.09935 12.1923 2.14592 12.1459ZM6.14592 12.1459C6.19236 12.0993 6.24754 12.0624 6.30828 12.0371C6.36903 12.0119 6.43415 11.999 6.49992 11.999C6.56568 11.999 6.63081 12.0119 6.69155 12.0371C6.7523 12.0624 6.80747 12.0993 6.85392 12.1459L8.35392 13.6459C8.40048 13.6923 8.43742 13.7475 8.46263 13.8082C8.48784 13.869 8.50081 13.9341 8.50081 13.9999C8.50081 14.0656 8.48784 14.1307 8.46263 14.1915C8.43742 14.2522 8.40048 14.3074 8.35392 14.3539L7.85392 14.8539C7.76003 14.9477 7.63269 15.0005 7.49992 15.0005C7.36714 15.0005 7.2398 14.9477 7.14592 14.8539C7.05203 14.76 6.99929 14.6326 6.99929 14.4999C6.99929 14.3671 7.05203 14.2397 7.14592 14.1459L7.29292 13.9999L6.14592 12.8539C6.09935 12.8074 6.06241 12.7522 6.0372 12.6915C6.012 12.6307 5.99902 12.5656 5.99902 12.4999C5.99902 12.4341 6.012 12.369 6.0372 12.3082C6.06241 12.2475 6.09935 12.1923 6.14592 12.1459ZM10.1459 12.1459C10.1924 12.0993 10.2475 12.0624 10.3083 12.0371C10.369 12.0119 10.4341 11.999 10.4999 11.999C10.5657 11.999 10.6308 12.0119 10.6916 12.0371C10.7523 12.0624 10.8075 12.0993 10.8539 12.1459L12.3539 13.6459C12.4005 13.6923 12.4374 13.7475 12.4626 13.8082C12.4878 13.869 12.5008 13.9341 12.5008 13.9999C12.5008 14.0656 12.4878 14.1307 12.4626 14.1915C12.4374 14.2522 12.4005 14.3074 12.3539 14.3539L11.8539 14.8539C11.76 14.9477 11.6327 15.0005 11.4999 15.0005C11.3671 15.0005 11.2398 14.9477 11.1459 14.8539C11.052 14.76 10.9993 14.6326 10.9993 14.4999C10.9993 14.3671 11.052 14.2397 11.1459 14.1459L11.2929 13.9999L10.1459 12.8539C10.0994 12.8074 10.0624 12.7522 10.0372 12.6915C10.012 12.6307 9.99902 12.5656 9.99902 12.4999C9.99902 12.4341 10.012 12.369 10.0372 12.3082C10.0624 12.2475 10.0994 12.1923 10.1459 12.1459Z" fill="#2D3648"/>
</svg>
