<svg width="14" height="15" viewBox="0 0 14 15" fill="none" xmlns="http://www.w3.org/2000/svg">
<path d="M6.41709 6.33301H7.58375V9.24967H6.41709V6.33301ZM6.4165 9.83301H7.58317V10.9997H6.4165V9.83301Z" fill="#EB5757"/>
<path d="M8.03138 2.94958C7.82838 2.56749 7.43289 2.33008 7.00005 2.33008C6.56722 2.33008 6.17172 2.56749 5.96872 2.95016L1.68822 11.0369C1.59323 11.2145 1.54618 11.4138 1.55171 11.6151C1.55723 11.8164 1.61514 12.0128 1.71972 12.1849C1.82279 12.3578 1.96917 12.5008 2.14441 12.5998C2.31965 12.6989 2.51769 12.7505 2.71897 12.7496H11.2811C11.6941 12.7496 12.0681 12.5384 12.281 12.1849C12.3854 12.0127 12.4432 11.8164 12.4487 11.6151C12.4542 11.4138 12.4073 11.2145 12.3125 11.0369L8.03138 2.94958ZM2.71897 11.5829L7.00005 3.49616L11.2841 11.5829H2.71897Z" fill="#EB5757"/>
</svg>
