<svg width="17" height="16" viewBox="0 0 17 16" fill="none" xmlns="http://www.w3.org/2000/svg">
<path d="M9.56299 6.5L8.85799 7.205L10.148 8.5H5.56299V9.5H10.148L8.85799 10.795L9.56299 11.5L12.063 9L9.56299 6.5Z" fill="#4F4F4F"/>
<path d="M6.14899 3L7.85599 4.707L8.14899 5H14.563V13H2.56299V3H6.14899ZM6.14899 2H2.56299C2.29777 2 2.04342 2.10536 1.85588 2.29289C1.66835 2.48043 1.56299 2.73478 1.56299 3V13C1.56299 13.2652 1.66835 13.5196 1.85588 13.7071C2.04342 13.8946 2.29777 14 2.56299 14H14.563C14.8282 14 15.0826 13.8946 15.2701 13.7071C15.4576 13.5196 15.563 13.2652 15.563 13V5C15.563 4.73478 15.4576 4.48043 15.2701 4.29289C15.0826 4.10536 14.8282 4 14.563 4H8.56299L6.85599 2.293C6.6685 2.10545 6.41418 2.00006 6.14899 2Z" fill="#4F4F4F"/>
</svg>
