<svg width="18" height="18" viewBox="0 0 18 18" fill="none" xmlns="http://www.w3.org/2000/svg">
<path d="M12.9375 12.9375C12.1587 12.9375 11.3975 12.7066 10.7499 12.2739C10.1024 11.8413 9.59775 11.2263 9.29973 10.5068C9.00171 9.78733 8.92373 8.99563 9.07566 8.23183C9.22759 7.46803 9.6026 6.76644 10.1533 6.21577C10.7039 5.6651 11.4055 5.29009 12.1693 5.13816C12.9331 4.98623 13.7248 5.06421 14.4443 5.36223C15.1638 5.66025 15.7788 6.16493 16.2114 6.81244C16.6441 7.45996 16.875 8.22124 16.875 9C16.8738 10.0439 16.4586 11.0448 15.7204 11.7829C14.9823 12.5211 13.9814 12.9363 12.9375 12.9375ZM12.9375 6.1875C12.3812 6.1875 11.8375 6.35245 11.375 6.66149C10.9124 6.97054 10.552 7.40979 10.3391 7.9237C10.1262 8.43762 10.0705 9.00312 10.179 9.54869C10.2876 10.0943 10.5554 10.5954 10.9488 10.9887C11.3421 11.3821 11.8432 11.6499 12.3888 11.7585C12.9344 11.867 13.4999 11.8113 14.0138 11.5984C14.5277 11.3855 14.967 11.0251 15.276 10.5625C15.5851 10.1 15.75 9.55626 15.75 9C15.7493 8.25431 15.4527 7.53937 14.9254 7.01209C14.3981 6.4848 13.6832 6.18825 12.9375 6.1875Z" fill="#9747FF"/>
<path d="M5.0625 12.9375C7.23712 12.9375 9 11.1746 9 9C9 6.82538 7.23712 5.0625 5.0625 5.0625C2.88788 5.0625 1.125 6.82538 1.125 9C1.125 11.1746 2.88788 12.9375 5.0625 12.9375Z" fill="#9747FF"/>
</svg>
