<svg width="13" height="18" viewBox="0 0 13 18" fill="none" xmlns="http://www.w3.org/2000/svg">
<path d="M12.3065 2.90433C12.3065 4.50781 11.0066 5.80768 9.40311 5.80768C7.79963 5.80768 6.49976 4.50781 6.49976 2.90433C6.49976 1.30085 7.79963 0.000976562 9.40311 0.000976562C11.0066 0.000976562 12.3065 1.30085 12.3065 2.90433Z" fill="#CE4747"/>
<path d="M11.7257 15.0957C11.7257 16.6992 10.4258 17.9991 8.8223 17.9991C7.21882 17.9991 5.91895 16.6992 5.91895 15.0957C5.91895 13.4923 7.21882 12.1924 8.8223 12.1924C10.4258 12.1924 11.7257 13.4923 11.7257 15.0957Z" fill="#CE4747"/>
<path fill-rule="evenodd" clip-rule="evenodd" d="M10.4981 4.00447C10.7572 4.24201 10.7747 4.64464 10.5372 4.90377L2.06199 14.1494C1.82445 14.4086 1.42182 14.4261 1.16269 14.1885C0.903553 13.951 0.886048 13.5484 1.12359 13.2892L9.59878 4.04357C9.83632 3.78444 10.239 3.76693 10.4981 4.00447Z" fill="#CE4747"/>
</svg>
