<svg width="16" height="16" viewBox="0 0 16 16" fill="none" xmlns="http://www.w3.org/2000/svg">
<g clip-path="url(#clip0_921_9185)">
<path d="M11.5557 9.33344L11.5557 11.1112C11.5557 11.3567 11.7546 11.5557 12.0001 11.5557L13.7779 11.5557C14.0233 11.5557 14.2223 11.3567 14.2223 11.1112L14.2223 9.33344C14.2223 9.08798 14.0233 8.889 13.7779 8.889L12.0001 8.889C11.7546 8.889 11.5557 9.08798 11.5557 9.33344Z" fill="#2D3648"/>
<path d="M7.11095 9.33355L7.11095 11.1113C7.11095 11.2292 7.15777 11.3422 7.24112 11.4256C7.32447 11.5089 7.43752 11.5558 7.55539 11.5558L8.08873 11.5558L8.08873 13.4224L5.33317 13.4224L5.33317 12.8891C5.33317 12.7712 5.28635 12.6582 5.203 12.5748C5.11965 12.4915 5.0066 12.4447 4.88873 12.4447L3.11095 12.4447C2.99307 12.4447 2.88003 12.4915 2.79668 12.5748C2.71333 12.6582 2.6665 12.7712 2.6665 12.8891L2.6665 14.6669C2.6665 14.7848 2.71333 14.8978 2.79668 14.9812C2.88003 15.0645 2.99307 15.1113 3.11095 15.1113L4.88873 15.1113C5.0066 15.1113 5.11965 15.0645 5.203 14.9812C5.28635 14.8978 5.33317 14.7848 5.33317 14.6669L5.33317 14.1336L13.2443 14.1335L13.2443 11.1113C13.2443 11.017 13.2068 10.9266 13.1401 10.8599C13.0735 10.7932 12.983 10.7558 12.8887 10.7558C12.7944 10.7558 12.704 10.7932 12.6373 10.8599C12.5706 10.9266 12.5332 11.017 12.5332 11.1113L12.5332 13.4224L8.79984 13.4224L8.79984 11.5558L9.33317 11.5558C9.45104 11.5558 9.56409 11.5089 9.64744 11.4256C9.73079 11.3422 9.77761 11.2292 9.77761 11.1113L9.77761 9.33355C9.77761 9.21568 9.73079 9.10263 9.64744 9.01928C9.56409 8.93593 9.45104 8.88911 9.33317 8.88911L7.55539 8.88911C7.43752 8.88911 7.32447 8.93593 7.24112 9.01928C7.15777 9.10263 7.11095 9.21568 7.11095 9.33355Z" fill="#2D3648"/>
<path d="M3.55566 1.33344L3.55566 11.5557L4.44455 11.5557L4.44455 1.33344C4.44455 1.21557 4.39773 1.10252 4.31438 1.01917C4.23103 0.935822 4.11798 0.888997 4.00011 0.888997C3.88223 0.888997 3.76919 0.935822 3.68584 1.01917C3.60249 1.10252 3.55566 1.21557 3.55566 1.33344Z" fill="#2D3648"/>
<path d="M8 1.33333L8 8L8.88889 8L8.88889 1.33333C8.88889 1.21546 8.84206 1.10241 8.75871 1.01906C8.67536 0.935714 8.56232 0.888889 8.44444 0.888889C8.32657 0.888889 8.21352 0.935714 8.13017 1.01906C8.04682 1.10241 8 1.21546 8 1.33333Z" fill="#2D3648"/>
<path d="M12.4443 1.33333L12.4443 8L13.3332 8L13.3332 1.33333C13.3332 1.21546 13.2864 1.10241 13.2031 1.01906C13.1197 0.935714 13.0067 0.888889 12.8888 0.888889C12.7709 0.888889 12.6579 0.935714 12.5745 1.01906C12.4912 1.10241 12.4443 1.21546 12.4443 1.33333Z" fill="#2D3648"/>
</g>
<defs>
<clipPath id="clip0_921_9185">
<rect width="16" height="16" fill="white" transform="translate(0 16) rotate(-90)"/>
</clipPath>
</defs>
</svg>
