<svg width="51" height="51" viewBox="0 0 51 51" fill="none" xmlns="http://www.w3.org/2000/svg">
<rect x="0.333496" y="0.046875" width="50" height="50" rx="25" fill="#9747FF" fill-opacity="0.1"/>
<path d="M21.4699 18.5446H24.538C24.8093 18.5446 25.0694 18.4302 25.2612 18.2265C25.453 18.0229 25.5608 17.7467 25.5608 17.4587C25.5608 17.1707 25.453 16.8945 25.2612 16.6909C25.0694 16.4873 24.8093 16.3728 24.538 16.3728H21.4699C21.1986 16.3728 20.9385 16.4873 20.7467 16.6909C20.5549 16.8945 20.4471 17.1707 20.4471 17.4587C20.4471 17.7467 20.5549 18.0229 20.7467 18.2265C20.9385 18.4302 21.1986 18.5446 21.4699 18.5446ZM29.6517 18.5446C29.854 18.5446 30.0517 18.4809 30.2199 18.3616C30.3881 18.2423 30.5191 18.0727 30.5966 17.8743C30.674 17.6758 30.6942 17.4575 30.6548 17.2469C30.6153 17.0362 30.5179 16.8428 30.3749 16.6909C30.2318 16.539 30.0496 16.4356 29.8512 16.3937C29.6528 16.3518 29.4472 16.3733 29.2603 16.4555C29.0734 16.5377 28.9137 16.6769 28.8013 16.8554C28.6889 17.034 28.629 17.244 28.629 17.4587C28.629 17.7467 28.7367 18.0229 28.9285 18.2265C29.1203 18.4302 29.3804 18.5446 29.6517 18.5446ZM29.6517 22.8881C29.4494 22.8881 29.2517 22.9518 29.0835 23.0711C28.9153 23.1904 28.7842 23.36 28.7068 23.5584C28.6294 23.7568 28.6091 23.9752 28.6486 24.1858C28.6881 24.3964 28.7855 24.5899 28.9285 24.7418C29.0715 24.8936 29.2538 24.9971 29.4522 25.039C29.6505 25.0809 29.8562 25.0594 30.0431 24.9772C30.2299 24.895 30.3897 24.7558 30.502 24.5772C30.6144 24.3987 30.6744 24.1887 30.6744 23.974C30.6744 23.686 30.5667 23.4098 30.3749 23.2061C30.1831 23.0025 29.9229 22.8881 29.6517 22.8881ZM34.7653 32.6609H28.4449C28.2921 32.2055 28.0459 31.7919 27.7239 31.4501C27.402 31.1082 27.0124 30.8468 26.5835 30.6846V28.3174H30.6744C31.4881 28.3174 32.2685 27.9742 32.8439 27.3633C33.4193 26.7524 33.7426 25.9238 33.7426 25.0598V22.8881C33.7381 22.0845 33.454 21.311 32.9449 20.7163C33.454 20.1217 33.7381 19.3482 33.7426 18.5446V16.3728C33.7426 15.5089 33.4193 14.6803 32.8439 14.0694C32.2685 13.4584 31.4881 13.1152 30.6744 13.1152H20.4471C19.6334 13.1152 18.853 13.4584 18.2776 14.0694C17.7022 14.6803 17.379 15.5089 17.379 16.3728V18.5446C17.3835 19.3482 17.6676 20.1217 18.1767 20.7163C17.6676 21.311 17.3835 22.0845 17.379 22.8881V25.0598C17.379 25.9238 17.7022 26.7524 18.2776 27.3633C18.853 27.9742 19.6334 28.3174 20.4471 28.3174H24.538V30.6846C24.1091 30.8468 23.7195 31.1082 23.3976 31.4501C23.0757 31.7919 22.8294 32.2055 22.6767 32.6609H16.3562C16.085 32.6609 15.8248 32.7753 15.633 32.979C15.4412 33.1826 15.3335 33.4588 15.3335 33.7468C15.3335 34.0348 15.4412 34.311 15.633 34.5146C15.8248 34.7183 16.085 34.8327 16.3562 34.8327H22.6767C22.8917 35.4616 23.2838 36.0049 23.7998 36.3889C24.3158 36.7729 24.9306 36.9789 25.5608 36.9789C26.1909 36.9789 26.8057 36.7729 27.3217 36.3889C27.8377 36.0049 28.2299 35.4616 28.4449 34.8327H34.7653C35.0366 34.8327 35.2967 34.7183 35.4885 34.5146C35.6803 34.311 35.788 34.0348 35.788 33.7468C35.788 33.4588 35.6803 33.1826 35.4885 32.979C35.2967 32.7753 35.0366 32.6609 34.7653 32.6609ZM19.4244 16.3728C19.4244 16.0849 19.5322 15.8087 19.724 15.605C19.9158 15.4014 20.1759 15.287 20.4471 15.287H30.6744C30.9456 15.287 31.2058 15.4014 31.3976 15.605C31.5894 15.8087 31.6971 16.0849 31.6971 16.3728V18.5446C31.6971 18.8326 31.5894 19.1088 31.3976 19.3124C31.2058 19.5161 30.9456 19.6305 30.6744 19.6305H20.4471C20.1759 19.6305 19.9158 19.5161 19.724 19.3124C19.5322 19.1088 19.4244 18.8326 19.4244 18.5446V16.3728ZM20.4471 26.1457C20.1759 26.1457 19.9158 26.0313 19.724 25.8277C19.5322 25.624 19.4244 25.3478 19.4244 25.0598V22.8881C19.4244 22.6001 19.5322 22.3239 19.724 22.1203C19.9158 21.9166 20.1759 21.8022 20.4471 21.8022H30.6744C30.9456 21.8022 31.2058 21.9166 31.3976 22.1203C31.5894 22.3239 31.6971 22.6001 31.6971 22.8881V25.0598C31.6971 25.3478 31.5894 25.624 31.3976 25.8277C31.2058 26.0313 30.9456 26.1457 30.6744 26.1457H20.4471ZM25.5608 34.8327C25.3585 34.8327 25.1608 34.769 24.9926 34.6497C24.8244 34.5304 24.6933 34.3608 24.6159 34.1623C24.5385 33.9639 24.5182 33.7456 24.5577 33.535C24.5972 33.3243 24.6946 33.1308 24.8376 32.979C24.9806 32.8271 25.1629 32.7237 25.3612 32.6818C25.5596 32.6399 25.7653 32.6614 25.9521 32.7436C26.139 32.8258 26.2988 32.965 26.4111 33.1435C26.5235 33.3221 26.5835 33.532 26.5835 33.7468C26.5835 34.0348 26.4757 34.311 26.2839 34.5146C26.0921 34.7183 25.832 34.8327 25.5608 34.8327ZM24.538 22.8881H21.4699C21.1986 22.8881 20.9385 23.0025 20.7467 23.2061C20.5549 23.4098 20.4471 23.686 20.4471 23.974C20.4471 24.2619 20.5549 24.5381 20.7467 24.7418C20.9385 24.9454 21.1986 25.0598 21.4699 25.0598H24.538C24.8093 25.0598 25.0694 24.9454 25.2612 24.7418C25.453 24.5381 25.5608 24.2619 25.5608 23.974C25.5608 23.686 25.453 23.4098 25.2612 23.2061C25.0694 23.0025 24.8093 22.8881 24.538 22.8881Z" fill="#9747FF"/>
</svg>
