<svg width="51" height="51" viewBox="0 0 51 51" fill="none" xmlns="http://www.w3.org/2000/svg">
<rect x="0.666504" y="0.046875" width="50" height="50" rx="25" fill="#E22900" fill-opacity="0.1"/>
<path d="M24.6675 23.0469H26.6675V28.0469H24.6675V23.0469ZM24.6665 29.0469H26.6665V31.0469H24.6665V29.0469Z" fill="#E22900"/>
<path d="M27.4345 17.2466C27.0865 16.5916 26.4085 16.1846 25.6665 16.1846C24.9245 16.1846 24.2465 16.5916 23.8985 17.2476L16.5605 31.1106C16.3976 31.415 16.317 31.7566 16.3264 32.1017C16.3359 32.4468 16.4352 32.7835 16.6145 33.0786C16.7912 33.375 17.0421 33.6201 17.3425 33.7899C17.6429 33.9596 17.9824 34.0481 18.3275 34.0466H33.0055C33.7135 34.0466 34.3545 33.6846 34.7195 33.0786C34.8984 32.7834 34.9976 32.4468 35.007 32.1017C35.0165 31.7567 34.936 31.4151 34.7735 31.1106L27.4345 17.2466ZM18.3275 32.0466L25.6665 18.1836L33.0105 32.0466H18.3275Z" fill="#E22900"/>
</svg>
