<svg width="50" height="51" viewBox="0 0 50 51" fill="none" xmlns="http://www.w3.org/2000/svg">
<rect y="0.046875" width="50" height="50" rx="25" fill="#00ABE2" fill-opacity="0.1"/>
<path d="M16 30.0469C16 29.4969 16.1957 29.0262 16.587 28.6349C16.979 28.2429 17.45 28.0469 18 28.0469L19 28.0469L19 26.0469C19 25.4969 19.1957 25.0262 19.587 24.6349C19.979 24.2429 20.45 24.0469 21 24.0469L29 24.0469L29 22.0469L28 22.0469C27.45 22.0469 26.9793 21.8509 26.588 21.4589C26.196 21.0675 26 20.5969 26 20.0469L26 17.0469C26 16.4969 26.196 16.0262 26.588 15.6349C26.9793 15.2429 27.45 15.0469 28 15.0469L32 15.0469C32.55 15.0469 33.021 15.2429 33.413 15.6349C33.8043 16.0262 34 16.4969 34 17.0469L34 20.0469C34 20.5969 33.8043 21.0675 33.413 21.4589C33.021 21.8509 32.55 22.0469 32 22.0469L31 22.0469L31 28.0469L32 28.0469C32.55 28.0469 33.021 28.2429 33.413 28.6349C33.8043 29.0262 34 29.4969 34 30.0469L34 33.0469C34 33.5969 33.8043 34.0679 33.413 34.4599C33.021 34.8512 32.55 35.0469 32 35.0469L28 35.0469C27.45 35.0469 26.9793 34.8512 26.588 34.4599C26.196 34.0679 26 33.5969 26 33.0469L26 30.0469C26 29.4969 26.196 29.0262 26.588 28.6349C26.9793 28.2429 27.45 28.0469 28 28.0469L29 28.0469L29 26.0469L21 26.0469L21 28.0469L22 28.0469C22.55 28.0469 23.021 28.2429 23.413 28.6349C23.8043 29.0262 24 29.4969 24 30.0469L24 33.0469C24 33.5969 23.8043 34.0679 23.413 34.4599C23.021 34.8512 22.55 35.0469 22 35.0469L18 35.0469C17.45 35.0469 16.979 34.8512 16.587 34.4599C16.1957 34.0679 16 33.5969 16 33.0469L16 30.0469ZM32 17.0469L28 17.0469L32 17.0469ZM22 30.0469L18 30.0469L22 30.0469ZM32 30.0469L28 30.0469L32 30.0469ZM28 30.0469L28 33.0469L32 33.0469L32 30.0469L28 30.0469ZM18 30.0469L18 33.0469L22 33.0469L22 30.0469L18 30.0469ZM28 17.0469L28 20.0469L32 20.0469L32 17.0469L28 17.0469Z" fill="#00ABE2"/>
</svg>
