<svg width="50" height="51" viewBox="0 0 50 51" fill="none" xmlns="http://www.w3.org/2000/svg">
<rect y="0.046875" width="50" height="50" rx="25" fill="#58C234" fill-opacity="0.1"/>
<path fill-rule="evenodd" clip-rule="evenodd" d="M23.7148 15.4606H34.5735L35.3891 16.2602V23.4679C34.8896 23.0906 34.3475 22.7734 33.7739 22.5227V20.2422H23.6828L22.3075 21.6176L21.7478 21.8574H14.5672V31.4528H22.7393C22.8512 32.0093 23.0223 32.5435 23.2446 33.052H13.7996L13 32.2524V14.6609L13.7996 13.8613H21.7957L22.3555 14.1012L23.7148 15.4606ZM23.363 18.659H33.7579L33.7739 17.0758H23.379L22.8032 16.8359L21.4439 15.4765H14.5832V20.2742H21.4279L22.8032 18.8989L23.363 18.659Z" fill="#58C234"/>
<path fill-rule="evenodd" clip-rule="evenodd" d="M27.0221 24.536C27.7205 24.0641 28.5053 23.7349 29.3313 23.5672C30.1573 23.3996 31.0084 23.3969 31.8355 23.5592C32.6625 23.7215 33.4494 24.0457 34.1508 24.5131C34.8522 24.9805 35.4543 25.582 35.9226 26.2828C36.3908 26.9837 36.7159 27.7702 36.8792 28.5971C37.0425 29.424 37.0407 30.275 36.8741 31.1012C36.7074 31.9275 36.3791 32.7126 35.908 33.4116C35.4369 34.1105 34.8323 34.7095 34.129 35.174C32.7183 36.1058 30.9959 36.4413 29.3386 36.1069C27.6812 35.7726 26.2236 34.7957 25.2844 33.3899C24.3451 31.984 24.0007 30.2635 24.3263 28.6044C24.652 26.9453 25.6212 25.4825 27.0221 24.536ZM30.4284 32.5161L34.2458 27.4274L32.9664 26.4678L29.6448 30.8961L27.5642 29.2313L26.5647 30.4787L29.2898 32.66L30.43 32.5161H30.4284Z" fill="#58C234"/>
</svg>
