<svg width="16" height="16" viewBox="0 0 16 16" fill="none" xmlns="http://www.w3.org/2000/svg">
<path d="M4.79975 3.64026H7.07975C7.28131 3.64026 7.47462 3.56355 7.61715 3.42701C7.75968 3.29048 7.83975 3.1053 7.83975 2.9122C7.83975 2.71911 7.75968 2.53393 7.61715 2.39739C7.47462 2.26086 7.28131 2.18415 7.07975 2.18415H4.79975C4.59818 2.18415 4.40487 2.26086 4.26235 2.39739C4.11982 2.53393 4.03975 2.71911 4.03975 2.9122C4.03975 3.1053 4.11982 3.29048 4.26235 3.42701C4.40487 3.56355 4.59818 3.64026 4.79975 3.64026ZM10.8797 3.64026C11.0301 3.64026 11.177 3.59756 11.302 3.51756C11.427 3.43756 11.5244 3.32385 11.5819 3.19082C11.6394 3.05778 11.6545 2.9114 11.6251 2.77017C11.5958 2.62894 11.5234 2.49921 11.4171 2.39739C11.3109 2.29558 11.1754 2.22623 11.028 2.19814C10.8806 2.17005 10.7278 2.18447 10.5889 2.23957C10.45 2.29468 10.3313 2.38799 10.2478 2.50772C10.1643 2.62745 10.1197 2.76821 10.1197 2.9122C10.1197 3.1053 10.1998 3.29048 10.3423 3.42701C10.4849 3.56355 10.6782 3.64026 10.8797 3.64026ZM10.8797 6.55246C10.7294 6.55246 10.5825 6.59516 10.4575 6.67516C10.3325 6.75516 10.2351 6.86886 10.1776 7.0019C10.1201 7.13493 10.105 7.28132 10.1344 7.42255C10.1637 7.56378 10.2361 7.6935 10.3423 7.79532C10.4486 7.89714 10.5841 7.96648 10.7315 7.99457C10.8789 8.02267 11.0317 8.00825 11.1706 7.95314C11.3095 7.89804 11.4282 7.80472 11.5117 7.685C11.5952 7.56527 11.6397 7.42451 11.6397 7.28051C11.6397 7.08742 11.5597 6.90224 11.4171 6.7657C11.2746 6.62917 11.0813 6.55246 10.8797 6.55246ZM14.6797 13.1049H9.98295C9.86946 12.7996 9.68647 12.5223 9.44722 12.2931C9.20798 12.0639 8.91849 11.8886 8.59975 11.7799V10.1927H11.6397C12.2444 10.1927 12.8244 9.9626 13.252 9.55299C13.6795 9.14338 13.9197 8.58784 13.9197 8.00856V6.55246C13.9164 6.01366 13.7053 5.49507 13.3269 5.09636C13.7053 4.69765 13.9164 4.17905 13.9197 3.64026V2.18415C13.9197 1.60488 13.6795 1.04933 13.252 0.639724C12.8244 0.230116 12.2444 0 11.6397 0H4.03975C3.43505 0 2.85513 0.230116 2.42754 0.639724C1.99996 1.04933 1.75975 1.60488 1.75975 2.18415V3.64026C1.7631 4.17905 1.97423 4.69765 2.35255 5.09636C1.97423 5.49507 1.7631 6.01366 1.75975 6.55246V8.00856C1.75975 8.58784 1.99996 9.14338 2.42754 9.55299C2.85513 9.9626 3.43505 10.1927 4.03975 10.1927H7.07975V11.7799C6.761 11.8886 6.47151 12.0639 6.23227 12.2931C5.99303 12.5223 5.81003 12.7996 5.69655 13.1049H0.999746C0.798182 13.1049 0.604873 13.1816 0.462345 13.3182C0.319817 13.4547 0.239746 13.6399 0.239746 13.833C0.239746 14.0261 0.319817 14.2112 0.462345 14.3478C0.604873 14.4843 0.798182 14.561 0.999746 14.561H5.69655C5.8563 14.9827 6.1477 15.347 6.53115 15.6044C6.9146 15.8619 7.3715 16 7.83975 16C8.308 16 8.76489 15.8619 9.14834 15.6044C9.53179 15.347 9.82319 14.9827 9.98295 14.561H14.6797C14.8813 14.561 15.0746 14.4843 15.2171 14.3478C15.3597 14.2112 15.4397 14.0261 15.4397 13.833C15.4397 13.6399 15.3597 13.4547 15.2171 13.3182C15.0746 13.1816 14.8813 13.1049 14.6797 13.1049ZM3.27975 2.18415C3.27975 1.99106 3.35982 1.80588 3.50235 1.66934C3.64487 1.53281 3.83818 1.4561 4.03975 1.4561H11.6397C11.8413 1.4561 12.0346 1.53281 12.1771 1.66934C12.3197 1.80588 12.3997 1.99106 12.3997 2.18415V3.64026C12.3997 3.83335 12.3197 4.01853 12.1771 4.15507C12.0346 4.2916 11.8413 4.36831 11.6397 4.36831H4.03975C3.83818 4.36831 3.64487 4.2916 3.50235 4.15507C3.35982 4.01853 3.27975 3.83335 3.27975 3.64026V2.18415ZM4.03975 8.73661C3.83818 8.73661 3.64487 8.65991 3.50235 8.52337C3.35982 8.38684 3.27975 8.20165 3.27975 8.00856V6.55246C3.27975 6.35937 3.35982 6.17419 3.50235 6.03765C3.64487 5.90111 3.83818 5.82441 4.03975 5.82441H11.6397C11.8413 5.82441 12.0346 5.90111 12.1771 6.03765C12.3197 6.17419 12.3997 6.35937 12.3997 6.55246V8.00856C12.3997 8.20165 12.3197 8.38684 12.1771 8.52337C12.0346 8.65991 11.8413 8.73661 11.6397 8.73661H4.03975ZM7.83975 14.561C7.68943 14.561 7.54249 14.5183 7.41751 14.4383C7.29253 14.3583 7.19512 14.2446 7.1376 14.1116C7.08008 13.9786 7.06503 13.8322 7.09435 13.6909C7.12367 13.5497 7.19606 13.42 7.30235 13.3182C7.40863 13.2163 7.54405 13.147 7.69148 13.1189C7.8389 13.0908 7.99171 13.1052 8.13059 13.1603C8.26946 13.2154 8.38815 13.3088 8.47166 13.4285C8.55517 13.5482 8.59975 13.689 8.59975 13.833C8.59975 14.0261 8.51968 14.2112 8.37715 14.3478C8.23462 14.4843 8.04131 14.561 7.83975 14.561ZM7.07975 6.55246H4.79975C4.59818 6.55246 4.40487 6.62917 4.26235 6.7657C4.11982 6.90224 4.03975 7.08742 4.03975 7.28051C4.03975 7.4736 4.11982 7.65879 4.26235 7.79532C4.40487 7.93186 4.59818 8.00856 4.79975 8.00856H7.07975C7.28131 8.00856 7.47462 7.93186 7.61715 7.79532C7.75968 7.65879 7.83975 7.4736 7.83975 7.28051C7.83975 7.08742 7.75968 6.90224 7.61715 6.7657C7.47462 6.62917 7.28131 6.55246 7.07975 6.55246Z" fill="#BBBBBB"/>
</svg>
