<svg width="16" height="16" viewBox="0 0 16 16" fill="none" xmlns="http://www.w3.org/2000/svg">
<path d="M5.79078 13.1549H2.10896C1.71837 13.1549 1.34377 12.9997 1.06758 12.7235C0.791392 12.4474 0.63623 12.0728 0.63623 11.6822V2.10945C0.63623 1.29945 1.29896 0.636719 2.10896 0.636719H13.8908C14.2814 0.636719 14.656 0.791881 14.9321 1.06807C15.2083 1.34426 15.3635 1.71885 15.3635 2.10945V11.6822C15.3635 12.0728 15.2083 12.4474 14.9321 12.7235C14.656 12.9997 14.2814 13.1549 13.8908 13.1549H10.209L13.1544 14.6276V15.364H2.84532V14.6276L5.79078 13.1549ZM2.10896 2.10945V10.2094H13.8908V2.10945H2.10896Z" fill="#00ABE2"/>
</svg>
