<svg width="18" height="18" viewBox="0 0 18 18" fill="none" xmlns="http://www.w3.org/2000/svg">
<path d="M5.72745 4.54135H8.182C8.39899 4.54135 8.6071 4.4629 8.76054 4.32326C8.91398 4.18362 9.00018 3.99423 9.00018 3.79675C9.00018 3.59927 8.91398 3.40988 8.76054 3.27024C8.6071 3.1306 8.39899 3.05215 8.182 3.05215H5.72745C5.51046 3.05215 5.30235 3.1306 5.14891 3.27024C4.99547 3.40988 4.90927 3.59927 4.90927 3.79675C4.90927 3.99423 4.99547 4.18362 5.14891 4.32326C5.30235 4.4629 5.51046 4.54135 5.72745 4.54135ZM12.2729 4.54135C12.4347 4.54135 12.5929 4.49768 12.7275 4.41586C12.862 4.33404 12.9669 4.21775 13.0288 4.0817C13.0907 3.94564 13.1069 3.79592 13.0754 3.65149C13.0438 3.50705 12.9659 3.37437 12.8514 3.27024C12.737 3.16611 12.5912 3.09519 12.4325 3.06646C12.2738 3.03773 12.1093 3.05248 11.9598 3.10883C11.8103 3.16519 11.6825 3.26063 11.5926 3.38307C11.5027 3.50552 11.4547 3.64948 11.4547 3.79675C11.4547 3.99423 11.5409 4.18362 11.6944 4.32326C11.8478 4.4629 12.0559 4.54135 12.2729 4.54135ZM12.2729 7.51974C12.1111 7.51974 11.9529 7.56341 11.8183 7.64523C11.6838 7.72705 11.5789 7.84334 11.517 7.97939C11.4551 8.11545 11.4389 8.26516 11.4704 8.4096C11.502 8.55404 11.5799 8.68671 11.6944 8.79085C11.8088 8.89498 11.9546 8.9659 12.1133 8.99463C12.272 9.02336 12.4365 9.00861 12.586 8.95226C12.7355 8.8959 12.8633 8.80046 12.9532 8.67801C13.0431 8.55557 13.0911 8.41161 13.0911 8.26434C13.0911 8.06686 13.0049 7.87747 12.8514 7.73783C12.698 7.59819 12.4899 7.51974 12.2729 7.51974ZM16.3638 14.2211H11.3075C11.1853 13.9088 10.9883 13.6252 10.7307 13.3908C10.4732 13.1564 10.1615 12.9771 9.81836 12.866V11.2427H13.0911C13.7421 11.2427 14.3664 11.0074 14.8267 10.5885C15.287 10.1695 15.5456 9.60137 15.5456 9.00894V7.51974C15.542 6.9687 15.3147 6.43831 14.9075 6.03054C15.3147 5.62278 15.542 5.09239 15.5456 4.54135V3.05215C15.5456 2.45971 15.287 1.89154 14.8267 1.47262C14.3664 1.0537 13.7421 0.818359 13.0911 0.818359H4.90927C4.25828 0.818359 3.63396 1.0537 3.17364 1.47262C2.71333 1.89154 2.45472 2.45971 2.45472 3.05215V4.54135C2.45833 5.09239 2.68562 5.62278 3.09291 6.03054C2.68562 6.43831 2.45833 6.9687 2.45472 7.51974V9.00894C2.45472 9.60137 2.71333 10.1695 3.17364 10.5885C3.63396 11.0074 4.25828 11.2427 4.90927 11.2427H8.182V12.866C7.83885 12.9771 7.5272 13.1564 7.26964 13.3908C7.01208 13.6252 6.81507 13.9088 6.69291 14.2211H1.63654C1.41955 14.2211 1.21144 14.2996 1.058 14.4392C0.90456 14.5788 0.818359 14.7682 0.818359 14.9657C0.818359 15.1632 0.90456 15.3526 1.058 15.4922C1.21144 15.6319 1.41955 15.7103 1.63654 15.7103H6.69291C6.86489 16.1416 7.1786 16.5141 7.5914 16.7774C8.00421 17.0407 8.49608 17.182 9.00018 17.182C9.50428 17.182 9.99615 17.0407 10.409 16.7774C10.8218 16.5141 11.1355 16.1416 11.3075 15.7103H16.3638C16.5808 15.7103 16.7889 15.6319 16.9424 15.4922C17.0958 15.3526 17.182 15.1632 17.182 14.9657C17.182 14.7682 17.0958 14.5788 16.9424 14.4392C16.7889 14.2996 16.5808 14.2211 16.3638 14.2211ZM4.09109 3.05215C4.09109 2.85467 4.17729 2.66528 4.33073 2.52564C4.48417 2.386 4.69227 2.30756 4.90927 2.30756H13.0911C13.3081 2.30756 13.5162 2.386 13.6696 2.52564C13.8231 2.66528 13.9093 2.85467 13.9093 3.05215V4.54135C13.9093 4.73883 13.8231 4.92822 13.6696 5.06786C13.5162 5.2075 13.3081 5.28595 13.0911 5.28595H4.90927C4.69227 5.28595 4.48417 5.2075 4.33073 5.06786C4.17729 4.92822 4.09109 4.73883 4.09109 4.54135V3.05215ZM4.90927 9.75353C4.69227 9.75353 4.48417 9.67509 4.33073 9.53545C4.17729 9.39581 4.09109 9.20642 4.09109 9.00894V7.51974C4.09109 7.32226 4.17729 7.13287 4.33073 6.99323C4.48417 6.85359 4.69227 6.77514 4.90927 6.77514H13.0911C13.3081 6.77514 13.5162 6.85359 13.6696 6.99323C13.8231 7.13287 13.9093 7.32226 13.9093 7.51974V9.00894C13.9093 9.20642 13.8231 9.39581 13.6696 9.53545C13.5162 9.67509 13.3081 9.75353 13.0911 9.75353H4.90927ZM9.00018 15.7103C8.83836 15.7103 8.68017 15.6666 8.54562 15.5848C8.41107 15.503 8.3062 15.3867 8.24428 15.2507C8.18235 15.1146 8.16615 14.9649 8.19772 14.8205C8.22929 14.676 8.30721 14.5433 8.42164 14.4392C8.53606 14.3351 8.68185 14.2642 8.84056 14.2354C8.99927 14.2067 9.16378 14.2214 9.31328 14.2778C9.46279 14.3342 9.59057 14.4296 9.68047 14.552C9.77037 14.6745 9.81836 14.8185 9.81836 14.9657C9.81836 15.1632 9.73216 15.3526 9.57872 15.4922C9.42528 15.6319 9.21717 15.7103 9.00018 15.7103ZM8.182 7.51974H5.72745C5.51046 7.51974 5.30235 7.59819 5.14891 7.73783C4.99547 7.87747 4.90927 8.06686 4.90927 8.26434C4.90927 8.46182 4.99547 8.65121 5.14891 8.79085C5.30235 8.93049 5.51046 9.00894 5.72745 9.00894H8.182C8.39899 9.00894 8.6071 8.93049 8.76054 8.79085C8.91398 8.65121 9.00018 8.46182 9.00018 8.26434C9.00018 8.06686 8.91398 7.87747 8.76054 7.73783C8.6071 7.59819 8.39899 7.51974 8.182 7.51974Z" fill="#00ABE2"/>
</svg>
