<svg width="15" height="12" viewBox="0 0 15 12" fill="none" xmlns="http://www.w3.org/2000/svg">
<g clip-path="url(#clip0_921_13559)">
<path d="M14.9999 3.81818V6C14.9999 6.14773 14.946 6.27557 14.838 6.38352C14.73 6.49148 14.6022 6.54545 14.4545 6.54545H13.909C13.7613 6.54545 13.6335 6.49148 13.5255 6.38352C13.4175 6.27557 13.3636 6.14773 13.3636 6V3.81818C13.3636 3.21591 13.1505 2.7017 12.7244 2.27557C12.2982 1.84943 11.784 1.63636 11.1818 1.63636C10.5795 1.63636 10.0653 1.84943 9.63914 2.27557C9.213 2.7017 8.99993 3.21591 8.99993 3.81818V5.45455H9.81812C10.0454 5.45455 10.2386 5.53409 10.3977 5.69318C10.5568 5.85227 10.6363 6.04545 10.6363 6.27273V11.1818C10.6363 11.4091 10.5568 11.6023 10.3977 11.7614C10.2386 11.9205 10.0454 12 9.81812 12H1.6363C1.40902 12 1.21584 11.9205 1.05675 11.7614C0.897661 11.6023 0.818115 11.4091 0.818115 11.1818V6.27273C0.818115 6.04545 0.897661 5.85227 1.05675 5.69318C1.21584 5.53409 1.40902 5.45455 1.6363 5.45455H7.36357V3.81818C7.36357 2.76705 7.73715 1.8679 8.48431 1.12074C9.23147 0.37358 10.1306 0 11.1818 0C12.2329 0 13.132 0.37358 13.8792 1.12074C14.6264 1.8679 14.9999 2.76705 14.9999 3.81818Z" fill="#828282"/>
</g>
<defs>
<clipPath id="clip0_921_13559">
<rect width="14.1818" height="12" fill="white" transform="translate(0.818115)"/>
</clipPath>
</defs>
</svg>
