<svg width="24" height="24" viewBox="0 0 24 24" fill="none" xmlns="http://www.w3.org/2000/svg">
<rect width="24" height="24" rx="12" fill="#373737"/>
<path d="M12 11.4163C12.3222 11.4163 12.5833 11.6775 12.5833 11.9997V13.1663H13.75C14.0722 13.1663 14.3333 13.4275 14.3333 13.7497C14.3333 14.0718 14.0722 14.333 13.75 14.333H12.5833V15.4997C12.5833 15.8218 12.3222 16.083 12 16.083C11.6778 16.083 11.4167 15.8218 11.4167 15.4997V14.333H10.25C9.92783 14.333 9.66667 14.0718 9.66667 13.7497C9.66667 13.4275 9.92783 13.1663 10.25 13.1663H11.4167V11.9997C11.4167 11.6775 11.6778 11.4163 12 11.4163Z" fill="white"/>
<path fill-rule="evenodd" clip-rule="evenodd" d="M8.5 5.58301C8.03587 5.58301 7.59075 5.76738 7.26256 6.09557C6.93437 6.42376 6.75 6.86888 6.75 7.33301V16.6663C6.75 17.1305 6.93437 17.5756 7.26256 17.9038C7.59075 18.232 8.03587 18.4163 8.5 18.4163H15.5C15.9641 18.4163 16.4092 18.232 16.7374 17.9038C17.0656 17.5756 17.25 17.1305 17.25 16.6663V9.66634C17.25 9.51163 17.1885 9.36326 17.0791 9.25386L13.5791 5.75386C13.4697 5.64447 13.3214 5.58301 13.1667 5.58301H8.5ZM8.08752 6.92053C8.19692 6.81113 8.34529 6.74967 8.5 6.74967H12.5833V9.66634C12.5833 9.98851 12.8445 10.2497 13.1667 10.2497H16.0833V16.6663C16.0833 16.8211 16.0219 16.9694 15.9125 17.0788C15.8031 17.1882 15.6547 17.2497 15.5 17.2497H8.5C8.34529 17.2497 8.19692 17.1882 8.08752 17.0788C7.97812 16.9694 7.91667 16.8211 7.91667 16.6663V7.33301C7.91667 7.1783 7.97812 7.02993 8.08752 6.92053ZM15.2584 9.08301L13.75 7.57463V9.08301H15.2584Z" fill="white"/>
</svg>
