<svg width="24" height="24" viewBox="0 0 24 24" fill="none" xmlns="http://www.w3.org/2000/svg">
<rect width="24" height="24" rx="12" fill="#00ABE2"/>
<path d="M12.6665 7.33366C12.6665 6.96547 12.368 6.66699 11.9998 6.66699C11.6316 6.66699 11.3332 6.96547 11.3332 7.33366V11.3337H7.33317C6.96498 11.3337 6.6665 11.6321 6.6665 12.0003C6.6665 12.3685 6.96498 12.667 7.33317 12.667H11.3332V16.667C11.3332 17.0352 11.6316 17.3337 11.9998 17.3337C12.368 17.3337 12.6665 17.0352 12.6665 16.667V12.667H16.6665C17.0347 12.667 17.3332 12.3685 17.3332 12.0003C17.3332 11.6321 17.0347 11.3337 16.6665 11.3337H12.6665V7.33366Z" fill="white"/>
</svg>
