<svg width="24" height="24" viewBox="0 0 24 24" fill="none" xmlns="http://www.w3.org/2000/svg">
<rect x="0.5" y="0.5" width="23" height="23" rx="11.5" fill="#FF9D30"/>
<path fill-rule="evenodd" clip-rule="evenodd" d="M8.49984 6.16699C7.881 6.16699 7.28751 6.41282 6.84992 6.85041C6.41234 7.28799 6.1665 7.88149 6.1665 8.50033C6.1665 9.11916 6.41234 9.71266 6.84992 10.1502C7.28751 10.5878 7.881 10.8337 8.49984 10.8337H9.6665V13.167H8.49984C7.881 13.167 7.28751 13.4128 6.84992 13.8504C6.41234 14.288 6.1665 14.8815 6.1665 15.5003C6.1665 16.1192 6.41234 16.7127 6.84992 17.1502C7.28751 17.5878 7.881 17.8337 8.49984 17.8337C9.11868 17.8337 9.71217 17.5878 10.1498 17.1502C10.5873 16.7127 10.8332 16.1192 10.8332 15.5003V14.3337H13.1665V15.5003C13.1665 16.1192 13.4123 16.7127 13.8499 17.1502C14.2875 17.5878 14.881 17.8337 15.4998 17.8337C16.1187 17.8337 16.7122 17.5878 17.1498 17.1502C17.5873 16.7127 17.8332 16.1192 17.8332 15.5003C17.8332 14.8815 17.5873 14.288 17.1498 13.8504C16.7122 13.4128 16.1187 13.167 15.4998 13.167H14.3332V10.8337H15.4998C16.1187 10.8337 16.7122 10.5878 17.1498 10.1502C17.5873 9.71266 17.8332 9.11916 17.8332 8.50033C17.8332 7.88149 17.5873 7.28799 17.1498 6.85041C16.7122 6.41282 16.1187 6.16699 15.4998 6.16699C14.881 6.16699 14.2875 6.41282 13.8499 6.85041C13.4123 7.28799 13.1665 7.88149 13.1665 8.50033V9.66699H10.8332V8.50033C10.8332 7.88149 10.5873 7.28799 10.1498 6.85041C9.71217 6.41282 9.11868 6.16699 8.49984 6.16699ZM9.6665 8.50033V9.66699H8.49984C8.19042 9.66699 7.89367 9.54408 7.67488 9.32528C7.45609 9.10649 7.33317 8.80974 7.33317 8.50033C7.33317 8.19091 7.45609 7.89416 7.67488 7.67537C7.89367 7.45658 8.19042 7.33366 8.49984 7.33366C8.80926 7.33366 9.106 7.45658 9.3248 7.67537C9.54359 7.89416 9.6665 8.19091 9.6665 8.50033ZM10.8332 13.167V10.8337H13.1665V13.167H10.8332ZM8.49984 14.3337H9.6665V15.5003C9.6665 15.8097 9.54359 16.1065 9.3248 16.3253C9.106 16.5441 8.80926 16.667 8.49984 16.667C8.19042 16.667 7.89367 16.5441 7.67488 16.3253C7.45609 16.1065 7.33317 15.8097 7.33317 15.5003C7.33317 15.1909 7.45609 14.8942 7.67488 14.6754C7.89367 14.4566 8.19042 14.3337 8.49984 14.3337ZM14.3332 15.5003V14.3337H15.4998C15.8093 14.3337 16.106 14.4566 16.3248 14.6754C16.5436 14.8942 16.6665 15.1909 16.6665 15.5003C16.6665 15.8097 16.5436 16.1065 16.3248 16.3253C16.106 16.5441 15.8093 16.667 15.4998 16.667C15.1904 16.667 14.8937 16.5441 14.6749 16.3253C14.4561 16.1065 14.3332 15.8097 14.3332 15.5003ZM15.4998 9.66699H14.3332V8.50033C14.3332 8.19091 14.4561 7.89416 14.6749 7.67537C14.8937 7.45658 15.1904 7.33366 15.4998 7.33366C15.8093 7.33366 16.106 7.45658 16.3248 7.67537C16.5436 7.89416 16.6665 8.19091 16.6665 8.50033C16.6665 8.80975 16.5436 9.10649 16.3248 9.32528C16.106 9.54408 15.8093 9.66699 15.4998 9.66699Z" fill="white"/>
<rect x="0.5" y="0.5" width="23" height="23" rx="11.5" stroke="#FF9D30"/>
</svg>
