<svg width="16" height="16" viewBox="0 0 16 16" fill="none" xmlns="http://www.w3.org/2000/svg">
<path d="M2.75 0.5C2.15326 0.5 1.58097 0.737053 1.15901 1.15901C0.737053 1.58097 0.5 2.15326 0.5 2.75V5C0.5 5.41421 0.835786 5.75 1.25 5.75C1.66421 5.75 2 5.41421 2 5V2.75C2 2.55109 2.07902 2.36032 2.21967 2.21967C2.36032 2.07902 2.55109 2 2.75 2H5C5.41421 2 5.75 1.66421 5.75 1.25C5.75 0.835786 5.41421 0.5 5 0.5H2.75Z" fill="#696969"/>
<path d="M11 0.5C10.5858 0.5 10.25 0.835786 10.25 1.25C10.25 1.66421 10.5858 2 11 2H13.25C13.4489 2 13.6397 2.07902 13.7803 2.21967C13.921 2.36032 14 2.55109 14 2.75V5C14 5.41421 14.3358 5.75 14.75 5.75C15.1642 5.75 15.5 5.41421 15.5 5V2.75C15.5 2.15326 15.2629 1.58097 14.841 1.15901C14.419 0.737053 13.8467 0.5 13.25 0.5H11Z" fill="#696969"/>
<path d="M2 11C2 10.5858 1.66421 10.25 1.25 10.25C0.835786 10.25 0.5 10.5858 0.5 11V13.25C0.5 13.8467 0.737053 14.419 1.15901 14.841C1.58097 15.2629 2.15326 15.5 2.75 15.5H5C5.41421 15.5 5.75 15.1642 5.75 14.75C5.75 14.3358 5.41421 14 5 14H2.75C2.55109 14 2.36032 13.921 2.21967 13.7803C2.07902 13.6397 2 13.4489 2 13.25V11Z" fill="#696969"/>
<path d="M15.5 11C15.5 10.5858 15.1642 10.25 14.75 10.25C14.3358 10.25 14 10.5858 14 11V13.25C14 13.4489 13.921 13.6397 13.7803 13.7803C13.6397 13.921 13.4489 14 13.25 14H11C10.5858 14 10.25 14.3358 10.25 14.75C10.25 15.1642 10.5858 15.5 11 15.5H13.25C13.8467 15.5 14.419 15.2629 14.841 14.841C15.2629 14.419 15.5 13.8467 15.5 13.25V11Z" fill="#696969"/>
</svg>
