<svg width="15" height="14" viewBox="0 0 15 14" fill="none" xmlns="http://www.w3.org/2000/svg">
<g clip-path="url(#clip0_921_13557)">
<path d="M7.81816 4.66634C6.52899 4.66634 5.48482 5.71051 5.48482 6.99967C5.48482 8.28884 6.52899 9.33301 7.81816 9.33301C9.10732 9.33301 10.1515 8.28884 10.1515 6.99967C10.1515 5.71051 9.10732 4.66634 7.81816 4.66634ZM13.0332 6.41634C12.901 5.23341 12.3706 4.13057 11.5289 3.28891C10.6873 2.44725 9.58442 1.91681 8.40149 1.78467V0.583008H7.23482V1.78467C6.05189 1.91681 4.94905 2.44725 4.10739 3.28891C3.26574 4.13057 2.73529 5.23341 2.60316 6.41634H1.40149V7.58301H2.60316C2.73529 8.76594 3.26574 9.86878 4.10739 10.7104C4.94905 11.5521 6.05189 12.0825 7.23482 12.2147V13.4163H8.40149V12.2147C9.58442 12.0825 10.6873 11.5521 11.5289 10.7104C12.3706 9.86878 12.901 8.76594 13.0332 7.58301H14.2348V6.41634H13.0332ZM7.81816 11.083C5.56066 11.083 3.73482 9.25718 3.73482 6.99967C3.73482 4.74217 5.56066 2.91634 7.81816 2.91634C10.0757 2.91634 11.9015 4.74217 11.9015 6.99967C11.9015 9.25718 10.0757 11.083 7.81816 11.083Z" fill="#828282"/>
</g>
<defs>
<clipPath id="clip0_921_13557">
<rect width="14" height="14" fill="white" transform="translate(0.818115)"/>
</clipPath>
</defs>
</svg>
