<svg width="17" height="16" viewBox="0 0 17 16" fill="none" xmlns="http://www.w3.org/2000/svg">
<g clip-path="url(#clip0_924_9031)">
<path d="M6.33866 1.33903C7.24498 1.30564 8.14708 1.47814 8.97714 1.84357C9.8072 2.20901 10.5436 2.75786 11.131 3.44886C11.6053 4.00681 11.9725 4.64572 12.2158 5.33332H12.5631C13.4518 5.33391 14.3154 5.63043 15.0169 6.17608C15.7184 6.72173 16.2181 7.48544 16.4373 8.34667C16.6565 9.20791 16.5827 10.1176 16.2275 10.9322C15.8722 11.7468 15.2558 12.4199 14.4756 12.8453C14.1523 13.0216 13.7474 12.9024 13.5711 12.5791C13.3949 12.2558 13.5141 11.8509 13.8374 11.6747C14.3575 11.3911 14.7685 10.9423 15.0053 10.3993C15.2421 9.85618 15.2913 9.24971 15.1452 8.67556C14.9991 8.1014 14.6659 7.59226 14.1982 7.22849C13.7306 6.86473 13.1551 6.66705 12.5627 6.66666H11.7231C11.4192 6.66666 11.1538 6.46111 11.0777 6.16686C10.9011 5.48392 10.572 4.84989 10.1152 4.31244C9.65828 3.77499 9.08551 3.34811 8.43991 3.06388C7.7943 2.77966 7.09267 2.64549 6.38775 2.67146C5.68283 2.69743 4.99297 2.88287 4.37003 3.21383C3.7471 3.5448 3.2073 4.01267 2.79121 4.58228C2.37512 5.1519 2.09358 5.80842 1.96775 6.50251C1.84192 7.19659 1.87508 7.91017 2.06472 8.5896C2.25437 9.26902 2.59557 9.89662 3.06268 10.4252C3.30649 10.7011 3.28048 11.1224 3.00459 11.3662C2.72869 11.61 2.30738 11.584 2.06357 11.3081C1.463 10.6285 1.02431 9.82161 0.780479 8.94806C0.536648 8.07452 0.494021 7.15706 0.655804 6.26466C0.817586 5.37227 1.17957 4.52816 1.71454 3.7958C2.2495 3.06344 2.94353 2.46189 3.74445 2.03637C4.54537 1.61084 5.43233 1.37242 6.33866 1.33903Z" fill="#4F4F4F"/>
<path d="M8.30796 7.38392C8.23112 7.41571 8.15901 7.46249 8.09612 7.52426C8.09626 7.52413 8.09598 7.5244 8.09612 7.52426C8.0948 7.52556 8.09306 7.52728 8.09175 7.5286L5.42508 10.1953C5.16473 10.4556 5.16473 10.8777 5.42508 11.1381C5.68543 11.3984 6.10754 11.3984 6.36789 11.1381L7.89648 9.60948V14C7.89648 14.3682 8.19496 14.6667 8.56315 14.6667C8.93134 14.6667 9.22982 14.3682 9.22982 14V9.60948L10.7584 11.1381C11.0188 11.3984 11.4409 11.3984 11.7012 11.1381C11.9616 10.8777 11.9616 10.4556 11.7012 10.1953L9.03456 7.5286C8.97087 7.46491 8.89751 7.41681 8.81921 7.38428C8.74095 7.3517 8.65515 7.3336 8.56515 7.33334L8.56315 7.33333L8.56133 7.33334C8.47166 7.3336 8.38599 7.35156 8.30796 7.38392Z" fill="#4F4F4F"/>
</g>
<defs>
<clipPath id="clip0_924_9031">
<rect width="16" height="16" fill="white" transform="translate(0.562988)"/>
</clipPath>
</defs>
</svg>
