<svg width="17" height="16" viewBox="0 0 17 16" fill="none" xmlns="http://www.w3.org/2000/svg">
<path d="M2.75809 2.19559C2.88311 2.07056 3.05268 2.00033 3.22949 2.00033H9.22949C9.4063 2.00033 9.57587 2.07056 9.7009 2.19559C9.82592 2.32061 9.89616 2.49018 9.89616 2.66699V3.33366C9.89616 3.70185 10.1946 4.00033 10.5628 4.00033C10.931 4.00033 11.2295 3.70185 11.2295 3.33366V2.66699C11.2295 2.13656 11.0188 1.62785 10.6437 1.25278C10.2686 0.877706 9.75992 0.666992 9.22949 0.666992H3.22949C2.69906 0.666992 2.19035 0.877706 1.81528 1.25278C1.44021 1.62785 1.22949 2.13656 1.22949 2.66699V8.66699C1.22949 9.19742 1.44021 9.70613 1.81528 10.0812C2.19035 10.4563 2.69906 10.667 3.22949 10.667H3.89616C4.26435 10.667 4.56283 10.3685 4.56283 10.0003C4.56283 9.63213 4.26435 9.33366 3.89616 9.33366H3.22949C3.05268 9.33366 2.88311 9.26342 2.75809 9.1384C2.63306 9.01337 2.56283 8.8438 2.56283 8.66699V2.66699C2.56283 2.49018 2.63306 2.32061 2.75809 2.19559Z" fill="#4F4F4F"/>
<path fill-rule="evenodd" clip-rule="evenodd" d="M7.89616 5.33366C6.79159 5.33366 5.89616 6.22909 5.89616 7.33366V13.3337C5.89616 14.4382 6.79159 15.3337 7.89616 15.3337H13.8962C15.0007 15.3337 15.8962 14.4382 15.8962 13.3337V7.33366C15.8962 6.22909 15.0007 5.33366 13.8962 5.33366H7.89616ZM7.22949 7.33366C7.22949 6.96547 7.52797 6.66699 7.89616 6.66699H13.8962C14.2643 6.66699 14.5628 6.96547 14.5628 7.33366V13.3337C14.5628 13.7018 14.2643 14.0003 13.8962 14.0003H7.89616C7.52797 14.0003 7.22949 13.7018 7.22949 13.3337V7.33366Z" fill="#4F4F4F"/>
</svg>
