<svg width="16" height="16" viewBox="0 0 16 16" fill="none" xmlns="http://www.w3.org/2000/svg">
<path d="M8.00008 6.66634C8.36827 6.66634 8.66675 6.96482 8.66675 7.33301V8.66634H10.0001C10.3683 8.66634 10.6667 8.96482 10.6667 9.33301C10.6667 9.7012 10.3683 9.99967 10.0001 9.99967H8.66675V11.333C8.66675 11.7012 8.36827 11.9997 8.00008 11.9997C7.63189 11.9997 7.33341 11.7012 7.33341 11.333V9.99967H6.00008C5.63189 9.99967 5.33341 9.7012 5.33341 9.33301C5.33341 8.96482 5.63189 8.66634 6.00008 8.66634H7.33341V7.33301C7.33341 6.96482 7.63189 6.66634 8.00008 6.66634Z" fill="#4F4F4F"/>
<path fill-rule="evenodd" clip-rule="evenodd" d="M1.25253 1.91879C1.62761 1.54372 2.13632 1.33301 2.66675 1.33301H6.00008C6.22298 1.33301 6.43114 1.44441 6.55478 1.62987L7.6902 3.33301H13.3334C13.8638 3.33301 14.3726 3.54372 14.7476 3.91879C15.1227 4.29387 15.3334 4.80257 15.3334 5.33301V12.6663C15.3334 13.1968 15.1227 13.7055 14.7476 14.0806C14.3726 14.4556 13.8638 14.6663 13.3334 14.6663H2.66675C2.13631 14.6663 1.62761 14.4556 1.25253 14.0806C0.877462 13.7055 0.666748 13.1968 0.666748 12.6663V3.33301C0.666748 2.80257 0.877462 2.29387 1.25253 1.91879ZM2.66675 2.66634C2.48994 2.66634 2.32037 2.73658 2.19534 2.8616C2.07032 2.98663 2.00008 3.1562 2.00008 3.33301V12.6663C2.00008 12.8432 2.07032 13.0127 2.19534 13.1377C2.32037 13.2628 2.48994 13.333 2.66675 13.333H13.3334C13.5102 13.333 13.6798 13.2628 13.8048 13.1377C13.9298 13.0127 14.0001 12.8432 14.0001 12.6663V5.33301C14.0001 5.1562 13.9298 4.98663 13.8048 4.8616C13.6798 4.73658 13.5102 4.66634 13.3334 4.66634H7.33341C7.11051 4.66634 6.90236 4.55494 6.77871 4.36947L5.64329 2.66634H2.66675Z" fill="#4F4F4F"/>
</svg>
