<svg width="18" height="18" viewBox="0 0 18 18" fill="none" xmlns="http://www.w3.org/2000/svg">
<g clip-path="url(#clip0_921_14830)">
<path d="M1.28033 3.96967C0.987437 3.67678 0.512563 3.67678 0.21967 3.96967C-0.0732233 4.26256 -0.0732233 4.73744 0.21967 5.03033L5.84467 10.6553C6.13756 10.9482 6.61244 10.9482 6.90533 10.6553L10.125 7.43566L15.4393 12.75H12.75C12.3358 12.75 12 13.0858 12 13.5C12 13.9142 12.3358 14.25 12.75 14.25H17.25C17.6642 14.25 18 13.9142 18 13.5V9C18 8.58579 17.6642 8.25 17.25 8.25C16.8358 8.25 16.5 8.58579 16.5 9V11.6893L10.6553 5.84467C10.3624 5.55178 9.88756 5.55178 9.59467 5.84467L6.375 9.06434L1.28033 3.96967Z" fill="#114CD2"/>
</g>
<defs>
<clipPath id="clip0_921_14830">
<rect width="18" height="18" fill="white"/>
</clipPath>
</defs>
</svg>
