<svg width="17" height="16" viewBox="0 0 17 16" fill="none" xmlns="http://www.w3.org/2000/svg">
<g clip-path="url(#clip0_924_9029)">
<path d="M8.98126 1.8367C8.15106 1.47002 7.24849 1.29645 6.3415 1.32907C5.43451 1.36169 4.54674 1.59964 3.74502 2.025C2.9433 2.45037 2.24852 3.05207 1.71299 3.78481C1.17747 4.51754 0.815142 5.36222 0.653299 6.25525C0.491456 7.14827 0.534311 8.06638 0.778638 8.94045C1.02297 9.81452 1.4624 10.6218 2.06385 11.3014C2.30786 11.5772 2.72918 11.6029 3.00491 11.3589C3.28064 11.1149 3.30636 10.6936 3.06236 10.4178C2.59456 9.8892 2.25278 9.26134 2.06275 8.5815C1.87272 7.90167 1.83938 7.18759 1.96526 6.49301C2.09114 5.79844 2.37295 5.14146 2.78947 4.57156C3.20599 4.00165 3.74637 3.53367 4.36993 3.20282C4.99349 2.87198 5.68398 2.68691 6.38942 2.66154C7.09485 2.63618 7.79685 2.77117 8.44256 3.05637C9.08828 3.34156 9.66088 3.76952 10.1173 4.30804C10.5736 4.84655 10.9019 5.48158 11.0774 6.16533C11.153 6.46015 11.4187 6.6663 11.7231 6.6663H12.5631C13.1299 6.66585 13.6827 6.84605 14.1402 7.18073C14.5977 7.51541 14.9366 7.98717 15.1078 8.52754C15.279 9.06791 15.2736 9.64877 15.0923 10.1858C14.911 10.7229 14.5633 11.1882 14.0996 11.5143C13.7984 11.7261 13.726 12.1419 13.9378 12.4431C14.1496 12.7443 14.5654 12.8168 14.8666 12.605C15.5621 12.1159 16.0837 11.4179 16.3556 10.6123C16.6276 9.80668 16.6357 8.93538 16.3789 8.12482C16.1221 7.31427 15.6137 6.60664 14.9274 6.10461C14.2413 5.60269 13.4132 5.33241 12.5631 5.33296H12.2167C11.9744 4.64467 11.6081 4.0049 11.1344 3.44599C10.5477 2.75362 9.81146 2.20338 8.98126 1.8367Z" fill="#4F4F4F"/>
<path d="M8.56315 7.33297C8.93134 7.33297 9.22982 7.63144 9.22982 7.99963V12.3902L10.7584 10.8616C11.0188 10.6012 11.4409 10.6012 11.7012 10.8616C11.9616 11.1219 11.9616 11.544 11.7012 11.8044L9.03455 14.471C8.77421 14.7314 8.3521 14.7314 8.09175 14.471L5.42508 11.8044C5.16473 11.544 5.16473 11.1219 5.42508 10.8616C5.68543 10.6012 6.10754 10.6012 6.36789 10.8616L7.89648 12.3902V7.99963C7.89648 7.63144 8.19496 7.33297 8.56315 7.33297Z" fill="#4F4F4F"/>
</g>
<defs>
<clipPath id="clip0_924_9029">
<rect width="16" height="16" fill="white" transform="translate(0.562988)"/>
</clipPath>
</defs>
</svg>
