<svg width="18" height="18" viewBox="0 0 18 18" fill="none" xmlns="http://www.w3.org/2000/svg">
<g clip-path="url(#clip0_921_14827)">
<path d="M12.75 3.75C12.3358 3.75 12 4.08579 12 4.5C12 4.91421 12.3358 5.25 12.75 5.25H15.4393L10.125 10.5643L6.90533 7.34467C6.61244 7.05178 6.13756 7.05178 5.84467 7.34467L0.21967 12.9697C-0.0732233 13.2626 -0.0732233 13.7374 0.21967 14.0303C0.512563 14.3232 0.987437 14.3232 1.28033 14.0303L6.375 8.93566L9.59467 12.1553C9.88756 12.4482 10.3624 12.4482 10.6553 12.1553L16.5 6.31066V9C16.5 9.41421 16.8358 9.75 17.25 9.75C17.6642 9.75 18 9.41421 18 9V4.5C18 4.08579 17.6642 3.75 17.25 3.75H12.75Z" fill="#FAAF17"/>
</g>
<defs>
<clipPath id="clip0_921_14827">
<rect width="18" height="18" fill="white"/>
</clipPath>
</defs>
</svg>
