<svg width="17" height="16" viewBox="0 0 17 16" fill="none" xmlns="http://www.w3.org/2000/svg">
<path d="M7.22982 6.66699C7.59801 6.66699 7.89648 6.96547 7.89648 7.33366V11.3337C7.89648 11.7018 7.59801 12.0003 7.22982 12.0003C6.86163 12.0003 6.56315 11.7018 6.56315 11.3337V7.33366C6.56315 6.96547 6.86163 6.66699 7.22982 6.66699Z" fill="#4F4F4F"/>
<path d="M10.5632 11.3337V7.33366C10.5632 6.96547 10.2647 6.66699 9.89648 6.66699C9.52829 6.66699 9.22982 6.96547 9.22982 7.33366V11.3337C9.22982 11.7018 9.52829 12.0003 9.89648 12.0003C10.2647 12.0003 10.5632 11.7018 10.5632 11.3337Z" fill="#4F4F4F"/>
<path fill-rule="evenodd" clip-rule="evenodd" d="M5.22982 3.33366V2.66699C5.22982 2.13656 5.44053 1.62785 5.8156 1.25278C6.19068 0.877706 6.69938 0.666992 7.22982 0.666992H9.89648C10.4269 0.666992 10.9356 0.877706 11.3107 1.25278C11.6858 1.62785 11.8965 2.13656 11.8965 2.66699V3.33366H14.5632C14.9313 3.33366 15.2298 3.63214 15.2298 4.00033C15.2298 4.36852 14.9313 4.66699 14.5632 4.66699H13.8965V13.3337C13.8965 13.8641 13.6858 14.3728 13.3107 14.7479C12.9356 15.1229 12.4269 15.3337 11.8965 15.3337H5.22982C4.69938 15.3337 4.19068 15.1229 3.8156 14.7479C3.44053 14.3728 3.22982 13.8641 3.22982 13.3337V4.66699H2.56315C2.19496 4.66699 1.89648 4.36852 1.89648 4.00033C1.89648 3.63214 2.19496 3.33366 2.56315 3.33366H5.22982ZM6.75841 2.19559C6.88344 2.07056 7.05301 2.00033 7.22982 2.00033H9.89648C10.0733 2.00033 10.2429 2.07056 10.3679 2.19559C10.4929 2.32061 10.5632 2.49018 10.5632 2.66699V3.33366H6.56315V2.66699C6.56315 2.49018 6.63339 2.32061 6.75841 2.19559ZM4.56315 4.66699V13.3337C4.56315 13.5105 4.63339 13.68 4.75841 13.8051C4.88344 13.9301 5.05301 14.0003 5.22982 14.0003H11.8965C12.0733 14.0003 12.2429 13.9301 12.3679 13.8051C12.4929 13.68 12.5632 13.5105 12.5632 13.3337V4.66699H4.56315Z" fill="#4F4F4F"/>
</svg>
