<svg width="17" height="16" viewBox="0 0 17 16" fill="none" xmlns="http://www.w3.org/2000/svg">
<path d="M7.22949 3.33333C7.22949 2.59695 7.82645 2 8.56283 2C9.29921 2 9.89616 2.59695 9.89616 3.33333C9.89616 4.06971 9.29921 4.66667 8.56283 4.66667C7.82645 4.66667 7.22949 4.06971 7.22949 3.33333Z" fill="#4F4F4F"/>
<path d="M7.22949 8C7.22949 7.26362 7.82645 6.66667 8.56283 6.66667C9.29921 6.66667 9.89616 7.26362 9.89616 8C9.89616 8.73638 9.29921 9.33333 8.56283 9.33333C7.82645 9.33333 7.22949 8.73638 7.22949 8Z" fill="#4F4F4F"/>
<path d="M8.56283 11.3333C7.82645 11.3333 7.22949 11.9303 7.22949 12.6667C7.22949 13.403 7.82645 14 8.56283 14C9.29921 14 9.89616 13.403 9.89616 12.6667C9.89616 11.9303 9.29921 11.3333 8.56283 11.3333Z" fill="#4F4F4F"/>
</svg>
