<svg width="16" height="16" viewBox="0 0 16 16" fill="none" xmlns="http://www.w3.org/2000/svg">
<path d="M2.66667 1.33301C3.03486 1.33301 3.33333 1.63148 3.33333 1.99967V6.66634C3.33333 7.03453 3.03486 7.33301 2.66667 7.33301C2.29848 7.33301 2 7.03453 2 6.66634V1.99967C2 1.63148 2.29848 1.33301 2.66667 1.33301Z" fill="#00ABE2"/>
<path d="M3.33333 9.99967H4.66667C5.03486 9.99967 5.33333 9.7012 5.33333 9.33301C5.33333 8.96482 5.03486 8.66634 4.66667 8.66634H0.666667C0.298477 8.66634 0 8.96482 0 9.33301C0 9.7012 0.298477 9.99967 0.666667 9.99967H2V13.9997C2 14.3679 2.29848 14.6663 2.66667 14.6663C3.03486 14.6663 3.33333 14.3679 3.33333 13.9997V9.99967Z" fill="#00ABE2"/>
<path d="M8.66667 7.99967C8.66667 7.63148 8.36819 7.33301 8 7.33301C7.63181 7.33301 7.33333 7.63148 7.33333 7.99967V13.9997C7.33333 14.3679 7.63181 14.6663 8 14.6663C8.36819 14.6663 8.66667 14.3679 8.66667 13.9997V7.99967Z" fill="#00ABE2"/>
<path d="M8 1.33301C8.36819 1.33301 8.66667 1.63148 8.66667 1.99967V4.66634H10C10.3682 4.66634 10.6667 4.96482 10.6667 5.33301C10.6667 5.7012 10.3682 5.99967 10 5.99967H6C5.63181 5.99967 5.33333 5.7012 5.33333 5.33301C5.33333 4.96482 5.63181 4.66634 6 4.66634H7.33333V1.99967C7.33333 1.63148 7.63181 1.33301 8 1.33301Z" fill="#00ABE2"/>
<path d="M15.3333 9.99967C15.7015 9.99967 16 10.2982 16 10.6663C16 11.0345 15.7015 11.333 15.3333 11.333H14V13.9997C14 14.3679 13.7015 14.6663 13.3333 14.6663C12.9651 14.6663 12.6667 14.3679 12.6667 13.9997V11.333H11.3333C10.9651 11.333 10.6667 11.0345 10.6667 10.6663C10.6667 10.2982 10.9651 9.99967 11.3333 9.99967H15.3333Z" fill="#00ABE2"/>
<path d="M13.3333 1.33301C13.7015 1.33301 14 1.63148 14 1.99967V7.99967C14 8.36786 13.7015 8.66634 13.3333 8.66634C12.9651 8.66634 12.6667 8.36786 12.6667 7.99967V1.99967C12.6667 1.63148 12.9651 1.33301 13.3333 1.33301Z" fill="#00ABE2"/>
</svg>
