<svg width="16" height="16" viewBox="0 0 16 16" fill="none" xmlns="http://www.w3.org/2000/svg">
<path fill-rule="evenodd" clip-rule="evenodd" d="M3.3335 1.33301C2.80306 1.33301 2.29436 1.54372 1.91928 1.91879C1.54421 2.29387 1.3335 2.80257 1.3335 3.33301V12.6663C1.3335 13.1968 1.54421 13.7055 1.91928 14.0806C2.29436 14.4556 2.80306 14.6663 3.3335 14.6663H12.6668C13.1973 14.6663 13.706 14.4556 14.081 14.0806C14.4561 13.7055 14.6668 13.1968 14.6668 12.6663V5.33301C14.6668 5.1562 14.5966 4.98663 14.4716 4.8616L11.1382 1.52827C11.0132 1.40325 10.8436 1.33301 10.6668 1.33301H3.3335ZM3.3335 2.66634C3.15668 2.66634 2.98712 2.73658 2.86209 2.8616C2.73707 2.98663 2.66683 3.1562 2.66683 3.33301V12.6663C2.66683 12.8432 2.73707 13.0127 2.86209 13.1377C2.98712 13.2628 3.15669 13.333 3.3335 13.333H4.00016V8.66634C4.00016 8.29815 4.29864 7.99967 4.66683 7.99967H11.3335C11.7017 7.99967 12.0002 8.29815 12.0002 8.66634V13.333H12.6668C12.8436 13.333 13.0132 13.2628 13.1382 13.1377C13.2633 13.0127 13.3335 12.8432 13.3335 12.6663V5.60915L10.3907 2.66634H5.3335V4.66634H10.0002C10.3684 4.66634 10.6668 4.96482 10.6668 5.33301C10.6668 5.7012 10.3684 5.99967 10.0002 5.99967H4.66683C4.29864 5.99967 4.00016 5.7012 4.00016 5.33301V2.66634H3.3335ZM5.3335 9.33301V13.333H10.6668V9.33301H5.3335Z" fill="#5BBF39"/>
</svg>
