<svg width="16" height="17" viewBox="0 0 16 17" fill="none" xmlns="http://www.w3.org/2000/svg">
<path d="M2 11.833C2 11.4663 2.13044 11.1526 2.39133 10.8917C2.65267 10.6303 2.96667 10.4997 3.33333 10.4997L4 10.4997L4 9.16634C4 8.79967 4.13044 8.4859 4.39133 8.22501C4.65267 7.96367 4.96667 7.83301 5.33333 7.83301L10.6667 7.83301L10.6667 6.49967L10 6.49967C9.63333 6.49967 9.31956 6.36901 9.05867 6.10767C8.79733 5.84679 8.66667 5.53301 8.66667 5.16634L8.66667 3.16634C8.66667 2.79967 8.79733 2.4859 9.05867 2.22501C9.31956 1.96367 9.63333 1.83301 10 1.83301L12.6667 1.83301C13.0333 1.83301 13.3473 1.96367 13.6087 2.22501C13.8696 2.4859 14 2.79967 14 3.16634L14 5.16634C14 5.53301 13.8696 5.84679 13.6087 6.10767C13.3473 6.36901 13.0333 6.49967 12.6667 6.49967L12 6.49967L12 10.4997L12.6667 10.4997C13.0333 10.4997 13.3473 10.6303 13.6087 10.8917C13.8696 11.1526 14 11.4663 14 11.833L14 13.833C14 14.1997 13.8696 14.5137 13.6087 14.775C13.3473 15.0359 13.0333 15.1663 12.6667 15.1663L10 15.1663C9.63333 15.1663 9.31956 15.0359 9.05867 14.775C8.79733 14.5137 8.66667 14.1997 8.66667 13.833L8.66667 11.833C8.66667 11.4663 8.79733 11.1526 9.05867 10.8917C9.31956 10.6303 9.63333 10.4997 10 10.4997L10.6667 10.4997L10.6667 9.16634L5.33333 9.16634L5.33333 10.4997L6 10.4997C6.36667 10.4997 6.68067 10.6303 6.942 10.8917C7.20289 11.1526 7.33333 11.4663 7.33333 11.833L7.33333 13.833C7.33333 14.1997 7.20289 14.5137 6.942 14.775C6.68067 15.0359 6.36667 15.1663 6 15.1663L3.33333 15.1663C2.96667 15.1663 2.65267 15.0359 2.39133 14.775C2.13044 14.5137 2 14.1997 2 13.833L2 11.833ZM12.6667 3.16634L10 3.16634L12.6667 3.16634ZM6 11.833L3.33333 11.833L6 11.833ZM12.6667 11.833L10 11.833L12.6667 11.833ZM10 11.833L10 13.833L12.6667 13.833L12.6667 11.833L10 11.833ZM3.33333 11.833L3.33333 13.833L6 13.833L6 11.833L3.33333 11.833ZM10 3.16634L10 5.16634L12.6667 5.16634L12.6667 3.16634L10 3.16634Z" fill="#2D3648"/>
</svg>
