<svg width="93" height="47" viewBox="0 0 93 47" fill="none" xmlns="http://www.w3.org/2000/svg">
<rect x="6.82617" y="24.8984" width="76" height="3" fill="#81E0FF"/>
<path d="M17.8034 18.1712V26.8984H16.7807L12.025 20.0462H11.9398V26.8984H10.883V18.1712H11.9057L16.6784 25.0405H16.7637V18.1712H17.8034ZM22.5261 27.0348C21.8954 27.0348 21.3514 26.8956 20.894 26.6172C20.4395 26.3359 20.0886 25.9439 19.8414 25.4411C19.5971 24.9354 19.475 24.3473 19.475 23.6768C19.475 23.0064 19.5971 22.4155 19.8414 21.9041C20.0886 21.3899 20.4324 20.9893 20.8727 20.7024C21.3159 20.4126 21.8329 20.2678 22.4238 20.2678C22.7647 20.2678 23.1014 20.3246 23.4338 20.4382C23.7662 20.5518 24.0687 20.7365 24.3414 20.9922C24.6142 21.245 24.8315 21.5803 24.9934 21.9979C25.1554 22.4155 25.2363 22.9297 25.2363 23.5405V23.9666H20.1909V23.0973H24.2136C24.2136 22.728 24.1397 22.3984 23.992 22.1087C23.8471 21.8189 23.6397 21.5902 23.3699 21.4226C23.1028 21.255 22.7875 21.1712 22.4238 21.1712C22.0233 21.1712 21.6767 21.2706 21.3841 21.4695C21.0943 21.6655 20.8713 21.9212 20.715 22.2365C20.5588 22.5518 20.4806 22.8899 20.4806 23.2507V23.8303C20.4806 24.3246 20.5659 24.7436 20.7363 25.0874C20.9096 25.4283 21.1497 25.6882 21.4565 25.8672C21.7633 26.0433 22.1199 26.1314 22.5261 26.1314C22.7903 26.1314 23.0289 26.0945 23.242 26.0206C23.4579 25.9439 23.644 25.8303 23.8002 25.6797C23.9565 25.5263 24.0772 25.3359 24.1625 25.1087L25.1341 25.3814C25.0318 25.7109 24.8599 26.0007 24.6184 26.2507C24.377 26.4979 24.0787 26.6911 23.7235 26.8303C23.3684 26.9666 22.9693 27.0348 22.5261 27.0348ZM28.2491 26.8984L26.2548 20.353H27.3116L28.7264 25.3643H28.7946L30.1923 20.353H31.2662L32.6468 25.3473H32.715L34.1298 20.353H35.1866L33.1923 26.8984H32.2037L30.7718 21.87H30.6696L29.2377 26.8984H28.2491ZM40.0275 26.8984V18.1712H45.2605V19.1087H41.0843V22.0575H44.8684V22.995H41.0843V26.8984H40.0275ZM49.198 27.0348C48.5673 27.0348 48.0233 26.8956 47.5659 26.6172C47.1113 26.3359 46.7605 25.9439 46.5133 25.4411C46.269 24.9354 46.1468 24.3473 46.1468 23.6768C46.1468 23.0064 46.269 22.4155 46.5133 21.9041C46.7605 21.3899 47.1042 20.9893 47.5446 20.7024C47.9877 20.4126 48.5048 20.2678 49.0957 20.2678C49.4366 20.2678 49.7733 20.3246 50.1056 20.4382C50.438 20.5518 50.7406 20.7365 51.0133 20.9922C51.286 21.245 51.5034 21.5803 51.6653 21.9979C51.8272 22.4155 51.9082 22.9297 51.9082 23.5405V23.9666H46.8627V23.0973H50.8855C50.8855 22.728 50.8116 22.3984 50.6639 22.1087C50.519 21.8189 50.3116 21.5902 50.0417 21.4226C49.7747 21.255 49.4593 21.1712 49.0957 21.1712C48.6951 21.1712 48.3485 21.2706 48.0559 21.4695C47.7662 21.6655 47.5431 21.9212 47.3869 22.2365C47.2306 22.5518 47.1525 22.8899 47.1525 23.2507V23.8303C47.1525 24.3246 47.2377 24.7436 47.4082 25.0874C47.5815 25.4283 47.8216 25.6882 48.1284 25.8672C48.4352 26.0433 48.7917 26.1314 49.198 26.1314C49.4622 26.1314 49.7008 26.0945 49.9139 26.0206C50.1298 25.9439 50.3159 25.8303 50.4721 25.6797C50.6284 25.5263 50.7491 25.3359 50.8343 25.1087L51.8059 25.3814C51.7037 25.7109 51.5318 26.0007 51.2903 26.2507C51.0488 26.4979 50.7505 26.6911 50.3954 26.8303C50.0403 26.9666 49.6412 27.0348 49.198 27.0348ZM55.3642 27.0518C54.9494 27.0518 54.573 26.9737 54.2349 26.8175C53.8968 26.6584 53.6284 26.4297 53.4295 26.1314C53.2306 25.8303 53.1312 25.4666 53.1312 25.0405C53.1312 24.6655 53.2051 24.3615 53.3528 24.1286C53.5005 23.8928 53.698 23.7081 53.9451 23.5746C54.1923 23.4411 54.465 23.3416 54.7633 23.2763C55.0645 23.2081 55.367 23.1541 55.671 23.1143C56.0687 23.0632 56.3912 23.0249 56.6383 22.9993C56.8883 22.9709 57.0701 22.924 57.1838 22.8587C57.3002 22.7933 57.3585 22.6797 57.3585 22.5178V22.4837C57.3585 22.0632 57.2434 21.7365 57.0133 21.5036C56.786 21.2706 56.4409 21.1541 55.9778 21.1541C55.4977 21.1541 55.1213 21.2592 54.8485 21.4695C54.5758 21.6797 54.3841 21.9041 54.2733 22.1428L53.3187 21.8018C53.4892 21.4041 53.7164 21.0945 54.0005 20.8729C54.2875 20.6484 54.6 20.4922 54.938 20.4041C55.2789 20.3132 55.6142 20.2678 55.9437 20.2678C56.1539 20.2678 56.3954 20.2933 56.6681 20.3445C56.9437 20.3928 57.2093 20.4936 57.465 20.647C57.7235 20.8004 57.938 21.032 58.1085 21.3416C58.2789 21.6513 58.3642 22.0661 58.3642 22.5859V26.8984H57.3585V26.0121H57.3074C57.2392 26.1541 57.1255 26.3061 56.9664 26.468C56.8074 26.63 56.5957 26.7678 56.3315 26.8814C56.0673 26.995 55.7449 27.0518 55.3642 27.0518ZM55.5176 26.1484C55.9153 26.1484 56.2505 26.0703 56.5233 25.9141C56.7988 25.7578 57.0062 25.5561 57.1454 25.3089C57.2875 25.0618 57.3585 24.8018 57.3585 24.5291V23.6087C57.3159 23.6598 57.2221 23.7067 57.0772 23.7493C56.9352 23.7891 56.7704 23.8246 56.5829 23.8558C56.3983 23.8842 56.2179 23.9098 56.0417 23.9325C55.8684 23.9524 55.7278 23.9695 55.6199 23.9837C55.3585 24.0178 55.1142 24.0732 54.8869 24.1499C54.6625 24.2237 54.4806 24.3359 54.3414 24.4865C54.2051 24.6342 54.1369 24.8359 54.1369 25.0916C54.1369 25.4411 54.2662 25.7053 54.5247 25.8842C54.786 26.0604 55.117 26.1484 55.5176 26.1484ZM63.0463 20.353V21.2053H59.6543V20.353H63.0463ZM60.6429 18.7848H61.6486V25.0234C61.6486 25.3075 61.6898 25.5206 61.7722 25.6626C61.8574 25.8018 61.9654 25.8956 62.0961 25.9439C62.2296 25.9893 62.3702 26.0121 62.5179 26.0121C62.6287 26.0121 62.7196 26.0064 62.7907 25.995C62.8617 25.9808 62.9185 25.9695 62.9611 25.9609L63.1657 26.8643C63.0975 26.8899 63.0023 26.9155 62.8801 26.9411C62.758 26.9695 62.6032 26.9837 62.4157 26.9837C62.1316 26.9837 61.8532 26.9226 61.5804 26.8004C61.3105 26.6783 61.0861 26.4922 60.9071 26.2422C60.731 25.9922 60.6429 25.6768 60.6429 25.2962V18.7848ZM68.6841 24.2223V20.353H69.6898V26.8984H68.6841V25.7905H68.6159C68.4625 26.1229 68.2239 26.4055 67.9 26.6385C67.5762 26.8686 67.1671 26.9837 66.6728 26.9837C66.2637 26.9837 65.9 26.8942 65.5819 26.7152C65.2637 26.5334 65.0137 26.2607 64.8319 25.897C64.65 25.5305 64.5591 25.0689 64.5591 24.5121V20.353H65.5648V24.4439C65.5648 24.9212 65.6983 25.3018 65.9654 25.5859C66.2353 25.87 66.579 26.0121 66.9966 26.0121C67.2466 26.0121 67.5009 25.9482 67.7594 25.8203C68.0208 25.6925 68.2395 25.4964 68.4157 25.2322C68.5946 24.968 68.6841 24.6314 68.6841 24.2223ZM71.5318 26.8984V20.353H72.5034V21.3416H72.5716C72.6909 21.0178 72.9068 20.755 73.2193 20.5533C73.5318 20.3516 73.8841 20.2507 74.2761 20.2507C74.35 20.2507 74.4423 20.2521 74.5531 20.255C74.6639 20.2578 74.7477 20.2621 74.8045 20.2678V21.2905C74.7704 21.282 74.6923 21.2692 74.5701 21.2521C74.4508 21.2322 74.3244 21.2223 74.1909 21.2223C73.8727 21.2223 73.5886 21.2891 73.3386 21.4226C73.0914 21.5533 72.8954 21.7351 72.7505 21.968C72.6085 22.1982 72.5375 22.4609 72.5375 22.7564V26.8984H71.5318ZM78.5417 27.0348C77.911 27.0348 77.367 26.8956 76.9096 26.6172C76.4551 26.3359 76.1042 25.9439 75.8571 25.4411C75.6127 24.9354 75.4906 24.3473 75.4906 23.6768C75.4906 23.0064 75.6127 22.4155 75.8571 21.9041C76.1042 21.3899 76.448 20.9893 76.8883 20.7024C77.3315 20.4126 77.8485 20.2678 78.4395 20.2678C78.7804 20.2678 79.117 20.3246 79.4494 20.4382C79.7818 20.5518 80.0843 20.7365 80.3571 20.9922C80.6298 21.245 80.8471 21.5803 81.0091 21.9979C81.171 22.4155 81.252 22.9297 81.252 23.5405V23.9666H76.2065V23.0973H80.2292C80.2292 22.728 80.1554 22.3984 80.0076 22.1087C79.8627 21.8189 79.6554 21.5902 79.3855 21.4226C79.1184 21.255 78.8031 21.1712 78.4395 21.1712C78.0389 21.1712 77.6923 21.2706 77.3997 21.4695C77.1099 21.6655 76.8869 21.9212 76.7306 22.2365C76.5744 22.5518 76.4963 22.8899 76.4963 23.2507V23.8303C76.4963 24.3246 76.5815 24.7436 76.752 25.0874C76.9252 25.4283 77.1653 25.6882 77.4721 25.8672C77.7789 26.0433 78.1355 26.1314 78.5417 26.1314C78.8059 26.1314 79.0446 26.0945 79.2576 26.0206C79.4735 25.9439 79.6596 25.8303 79.8159 25.6797C79.9721 25.5263 80.0929 25.3359 80.1781 25.1087L81.1497 25.3814C81.0474 25.7109 80.8755 26.0007 80.6341 26.2507C80.3926 26.4979 80.0943 26.6911 79.7392 26.8303C79.3841 26.9666 78.9849 27.0348 78.5417 27.0348Z" fill="black"/>
<path fill-rule="evenodd" clip-rule="evenodd" d="M84.4905 16.3024C80.2711 15.0802 75.7836 14.3469 71.4091 13.7063C64.9705 12.7634 58.5042 12.1394 52.0447 11.8193C44.6534 11.453 37.3547 11.5557 30.1433 12.2137C29.8683 12.2388 29.6251 12.0362 29.6 11.7612C29.5749 11.4862 29.7775 11.243 30.0525 11.2179C37.3153 10.5552 44.6612 10.4522 52.0942 10.8205C58.5848 11.1422 65.0831 11.7692 71.554 12.7168C75.9319 13.3579 80.4783 14.0991 84.7687 15.3418C85.8652 15.6595 87.0617 16.0404 88.1578 16.5544C89.2513 17.0671 90.279 17.7277 91.0108 18.6229C92.375 20.2919 92.112 22.2051 91.2177 23.7125C89.719 26.239 86.9014 28.1654 84.1052 29.592C77.2871 33.0704 68.9278 34.7773 60.7242 35.6327C46.8848 37.0756 31.9524 36.0438 17.9235 33.3537C13.9111 32.5843 9.56738 31.6503 5.81257 29.9564C4.85281 29.5234 3.75998 28.9447 2.86098 28.2319C1.97318 27.5281 1.20096 26.6355 1.01957 25.5586C0.779768 24.1348 1.61333 23.011 2.63271 22.1822C3.65934 21.3474 4.9948 20.7083 6.04383 20.242C11.0341 18.0237 16.8462 16.742 22.4217 15.6455C30.854 13.9871 39.3761 13.1284 48.2063 12.8693C48.4823 12.8612 48.7126 13.0784 48.7207 13.3544C48.7288 13.6304 48.5116 13.8608 48.2356 13.8689C39.4518 14.1266 30.9852 14.9804 22.6147 16.6267C17.0372 17.7236 11.3262 18.9883 6.45003 21.1558C5.40381 21.6209 4.17756 22.2149 3.26357 22.9581C2.34232 23.7071 1.85636 24.5059 2.00568 25.3925C2.12562 26.1046 2.66377 26.7995 3.48222 27.4483C4.28946 28.0883 5.29874 28.6275 6.22379 29.0448C9.85966 30.6851 14.0977 31.6018 18.1118 32.3715C32.0647 35.0471 46.897 36.0689 60.6205 34.638C68.7755 33.7878 76.993 32.0978 83.6507 28.7012C86.4028 27.2972 89.0079 25.4776 90.3577 23.2023C91.1092 21.9355 91.256 20.5029 90.2365 19.2558C89.6373 18.5228 88.7586 17.9406 87.7332 17.4598C86.7105 16.9802 85.5754 16.6166 84.4905 16.3024Z" fill="#EE3030"/>
</svg>
