<svg width="60" height="26" viewBox="0 0 60 26" fill="none" xmlns="http://www.w3.org/2000/svg">
<path d="M51.8567 16.9016L52.6259 16.2625L51.8567 16.9016ZM57.9915 25.3923C58.5414 25.4431 59.0284 25.0385 59.0793 24.4886L59.9075 15.5268C59.9584 14.9768 59.5537 14.4898 59.0038 14.439C58.4539 14.3881 57.9668 14.7928 57.916 15.3427L57.1798 23.3088L49.2137 22.5725C48.6638 22.5217 48.1768 22.9263 48.1259 23.4762C48.0751 24.0262 48.4797 24.5132 49.0297 24.564L57.9915 25.3923ZM51.0875 17.5406L57.3143 25.0356L58.8527 23.7575L52.6259 16.2625L51.0875 17.5406ZM0.996159 5.5253C18.5105 -2.01875 38.9013 2.87233 51.0875 17.5406L52.6259 16.2625C39.8729 0.912105 18.5338 -4.20645 0.204961 3.68846L0.996159 5.5253Z" fill="#0984AB"/>
</svg>
