<svg width="16" height="16" viewBox="0 0 16 16" fill="none" xmlns="http://www.w3.org/2000/svg">
<g clip-path="url(#clip0_921_9194)">
<path fill-rule="evenodd" clip-rule="evenodd" d="M14 8.25C14 8.71413 13.8156 9.15925 13.4874 9.48744C13.1592 9.81562 12.7141 10 12.25 10L3.75 10C2.784 10 2 9.216 2 8.25L2 1.75C2 0.783999 2.784 -3.42697e-08 3.75 -7.64949e-08L12.25 -4.48042e-07C12.7141 -4.68329e-07 13.1592 0.184372 13.4874 0.512561C13.8156 0.84075 14 1.28587 14 1.75L14 8.25ZM12.25 8.5C12.388 8.5 12.5 8.388 12.5 8.25L12.5 1.75C12.5 1.68369 12.4737 1.62011 12.4268 1.57322C12.3799 1.52634 12.3163 1.5 12.25 1.5L3.75 1.5C3.6837 1.5 3.62011 1.52634 3.57322 1.57322C3.52634 1.62011 3.5 1.68369 3.5 1.75L3.5 8.25C3.5 8.3163 3.52634 8.37989 3.57322 8.42678C3.62011 8.47366 3.6837 8.5 3.75 8.5L12.25 8.5ZM3.508 11.1C3.59329 11.0507 3.68746 11.0186 3.78514 11.0057C3.88281 10.9927 3.98208 10.9992 4.07727 11.0246C4.17246 11.0501 4.2617 11.094 4.3399 11.154C4.41809 11.2139 4.48371 11.2887 4.533 11.374C4.55486 11.4123 4.58644 11.4441 4.62455 11.4662C4.66265 11.4883 4.70593 11.5 4.75 11.5L11.25 11.5C11.2941 11.5 11.3373 11.4883 11.3755 11.4662C11.4136 11.4441 11.4451 11.4123 11.467 11.374C11.5667 11.2019 11.7307 11.0764 11.923 11.0252C12.1152 10.974 12.3199 11.0013 12.492 11.101C12.6641 11.2007 12.7896 11.3647 12.8408 11.557C12.892 11.7492 12.8647 11.9539 12.765 12.126C12.6113 12.3918 12.3904 12.6124 12.1245 12.7658C11.8586 12.9192 11.557 13 11.25 13L4.75 13C4.101 13 3.536 12.647 3.234 12.126C3.18466 12.0407 3.1526 11.9465 3.13967 11.8489C3.12674 11.7512 3.13318 11.6519 3.15862 11.5567C3.18407 11.4615 3.22802 11.3723 3.28797 11.2941C3.34792 11.2159 3.42268 11.1503 3.508 11.101L3.508 11.1ZM5.533 14.375C5.48362 14.2897 5.41793 14.215 5.33967 14.1551C5.26141 14.0952 5.17212 14.0513 5.07689 14.0259C4.98167 14.0005 4.88237 13.9941 4.78467 14.0071C4.68698 14.02 4.59279 14.0521 4.5075 14.1015C4.42221 14.1509 4.34747 14.2166 4.28757 14.2948C4.22766 14.3731 4.18376 14.4624 4.15836 14.5576C4.13297 14.6528 4.12657 14.7521 4.13955 14.8498C4.15253 14.9475 4.18462 15.0417 4.234 15.127C4.38789 15.3927 4.60898 15.6133 4.87509 15.7665C5.14119 15.9198 5.44293 16.0003 5.75 16L10.25 16C10.899 16 11.464 15.647 11.765 15.126C11.8144 15.0408 11.8465 14.9467 11.8595 14.849C11.8725 14.7514 11.8661 14.6521 11.8408 14.557C11.8154 14.4618 11.7716 14.3725 11.7117 14.2943C11.6519 14.2161 11.5772 14.1504 11.492 14.101C11.4068 14.0516 11.3127 14.0195 11.215 14.0065C11.1174 13.9935 11.0181 13.9999 10.923 14.0252C10.8278 14.0506 10.7385 14.0944 10.6603 14.1543C10.5821 14.2141 10.5164 14.2888 10.467 14.374C10.4451 14.4123 10.4136 14.4441 10.3755 14.4662C10.3373 14.4883 10.2941 14.5 10.25 14.5L5.75 14.5C5.70593 14.5 5.66265 14.4883 5.62455 14.4662C5.58644 14.4441 5.55486 14.4123 5.533 14.374L5.533 14.375Z" fill="#2D3648"/>
</g>
<defs>
<clipPath id="clip0_921_9194">
<rect width="16" height="16" fill="white" transform="translate(0 16) rotate(-90)"/>
</clipPath>
</defs>
</svg>
