<svg width="14" height="14" viewBox="0 0 14 14" fill="none" xmlns="http://www.w3.org/2000/svg">
<g clip-path="url(#clip0_2906_13822)">
<path d="M5.95 9.80039C7.3031 9.80039 8.4 8.70349 8.4 7.35039C8.4 5.99729 7.3031 4.90039 5.95 4.90039C4.5969 4.90039 3.5 5.99729 3.5 7.35039C3.5 8.70349 4.5969 9.80039 5.95 9.80039Z" fill="#4F4F4F"/>
<path d="M9.80019 0V2.8H7.00019V4.2H9.80019V7H11.2002V4.2H14.0002V2.8H11.2002V0H9.80019ZM5.60019 10.5C2.3802 10.5 0.700195 12.383 0.700195 13.461V14H10.5002V13.461C10.5002 12.383 8.82019 10.5 5.60019 10.5Z" fill="#4F4F4F"/>
</g>
<defs>
<clipPath id="clip0_2906_13822">
<rect width="14" height="14" fill="white"/>
</clipPath>
</defs>
</svg>
