<svg width="16" height="16" viewBox="0 0 16 16" fill="none" xmlns="http://www.w3.org/2000/svg">
<path d="M11.9998 13.8337H7.99984C7.86723 13.8337 7.74005 13.781 7.64628 13.6872C7.55252 13.5934 7.49984 13.4663 7.49984 13.3337C7.49984 13.201 7.55252 13.0739 7.64628 12.9801C7.74005 12.8863 7.86723 12.8337 7.99984 12.8337H11.9998C12.2208 12.8337 12.4328 12.7459 12.5891 12.5896C12.7454 12.4333 12.8332 12.2213 12.8332 12.0003V4.00033C12.8332 3.77931 12.7454 3.56735 12.5891 3.41107C12.4328 3.25479 12.2208 3.16699 11.9998 3.16699H3.99984C3.77882 3.16699 3.56686 3.25479 3.41058 3.41107C3.2543 3.56735 3.1665 3.77931 3.1665 4.00033V8.00033C3.1665 8.13293 3.11383 8.26011 3.02006 8.35388C2.92629 8.44765 2.79911 8.50033 2.6665 8.50033C2.5339 8.50033 2.40672 8.44765 2.31295 8.35388C2.21918 8.26011 2.1665 8.13293 2.1665 8.00033V4.00033C2.1665 3.5141 2.35966 3.04778 2.70347 2.70396C3.04729 2.36015 3.51361 2.16699 3.99984 2.16699H11.9998C12.4861 2.16699 12.9524 2.36015 13.2962 2.70396C13.64 3.04778 13.8332 3.5141 13.8332 4.00033V12.0003C13.8332 12.4866 13.64 12.9529 13.2962 13.2967C12.9524 13.6405 12.4861 13.8337 11.9998 13.8337Z" fill="black"/>
<path d="M10.6667 8.49967C10.5346 8.49795 10.4084 8.44471 10.315 8.35132C10.2216 8.25792 10.1684 8.13175 10.1667 7.99967V5.83301H8C7.86739 5.83301 7.74022 5.78033 7.64645 5.68656C7.55268 5.59279 7.5 5.46562 7.5 5.33301C7.5 5.2004 7.55268 5.07322 7.64645 4.97945C7.74022 4.88569 7.86739 4.83301 8 4.83301H10.6667C10.7987 4.83473 10.9249 4.88797 11.0183 4.98136C11.1117 5.07476 11.1649 5.20094 11.1667 5.33301V7.99967C11.1649 8.13175 11.1117 8.25792 11.0183 8.35132C10.9249 8.44471 10.7987 8.49795 10.6667 8.49967Z" fill="black"/>
<path d="M7.6665 8.83374C7.53788 8.8239 7.41822 8.76407 7.33317 8.66707C7.25118 8.5754 7.20585 8.45673 7.20585 8.33374C7.20585 8.21075 7.25118 8.09208 7.33317 8.00041L10.3332 5.00041C10.428 4.91209 10.5533 4.864 10.6829 4.86629C10.8124 4.86857 10.936 4.92105 11.0276 5.01266C11.1192 5.10427 11.1717 5.22786 11.174 5.35739C11.1762 5.48692 11.1282 5.61229 11.0398 5.70707L7.99984 8.66707C7.91479 8.76407 7.79513 8.8239 7.6665 8.83374ZM5.33317 13.8337H3.33317C3.02429 13.832 2.72856 13.7085 2.51015 13.4901C2.29173 13.2717 2.16825 12.976 2.1665 12.6671V10.6671C2.16825 10.3582 2.29173 10.0625 2.51015 9.84405C2.72856 9.62563 3.02429 9.50216 3.33317 9.50041H5.33317C5.64205 9.50216 5.93778 9.62563 6.1562 9.84405C6.37461 10.0625 6.49809 10.3582 6.49984 10.6671V12.6671C6.49809 12.976 6.37461 13.2717 6.1562 13.4901C5.93778 13.7085 5.64205 13.832 5.33317 13.8337ZM3.33317 10.5004C3.28897 10.5004 3.24658 10.518 3.21532 10.5492C3.18406 10.5805 3.1665 10.6229 3.1665 10.6671V12.6671C3.1665 12.7113 3.18406 12.7537 3.21532 12.7849C3.24658 12.8162 3.28897 12.8337 3.33317 12.8337H5.33317C5.37737 12.8337 5.41977 12.8162 5.45102 12.7849C5.48228 12.7537 5.49984 12.7113 5.49984 12.6671V10.6671C5.49984 10.6229 5.48228 10.5805 5.45102 10.5492C5.41977 10.518 5.37737 10.5004 5.33317 10.5004H3.33317Z" fill="black"/>
</svg>
