<svg width="16" height="16" viewBox="0 0 16 16" fill="none" xmlns="http://www.w3.org/2000/svg">
<path d="M3.66683 4.66667C3.66683 4.22464 3.84242 3.80072 4.15498 3.48816C4.46755 3.17559 4.89147 3 5.3335 3C5.77552 3 6.19945 3.17559 6.51201 3.48816C6.82457 3.80072 7.00016 4.22464 7.00016 4.66667C7.00016 5.10869 6.82457 5.53262 6.51201 5.84518C6.19945 6.15774 5.77552 6.33333 5.3335 6.33333C4.89147 6.33333 4.46755 6.15774 4.15498 5.84518C3.84242 5.53262 3.66683 5.10869 3.66683 4.66667ZM5.3335 2C4.62625 2 3.94797 2.28095 3.44788 2.78105C2.94778 3.28115 2.66683 3.95942 2.66683 4.66667C2.66683 5.37391 2.94778 6.05219 3.44788 6.55228C3.94797 7.05238 4.62625 7.33333 5.3335 7.33333C6.04074 7.33333 6.71902 7.05238 7.21911 6.55228C7.71921 6.05219 8.00016 5.37391 8.00016 4.66667C8.00016 3.95942 7.71921 3.28115 7.21911 2.78105C6.71902 2.28095 6.04074 2 5.3335 2ZM10.3335 5.33333C10.3335 5.06812 10.4389 4.81376 10.6264 4.62623C10.8139 4.43869 11.0683 4.33333 11.3335 4.33333C11.5987 4.33333 11.8531 4.43869 12.0406 4.62623C12.2281 4.81376 12.3335 5.06812 12.3335 5.33333C12.3335 5.59855 12.2281 5.8529 12.0406 6.04044C11.8531 6.22798 11.5987 6.33333 11.3335 6.33333C11.0683 6.33333 10.8139 6.22798 10.6264 6.04044C10.4389 5.8529 10.3335 5.59855 10.3335 5.33333ZM11.3335 3.33333C10.8031 3.33333 10.2944 3.54405 9.91928 3.91912C9.54421 4.29419 9.3335 4.8029 9.3335 5.33333C9.3335 5.86377 9.54421 6.37247 9.91928 6.74755C10.2944 7.12262 10.8031 7.33333 11.3335 7.33333C11.8639 7.33333 12.3726 7.12262 12.7477 6.74755C13.1228 6.37247 13.3335 5.86377 13.3335 5.33333C13.3335 4.8029 13.1228 4.29419 12.7477 3.91912C12.3726 3.54405 11.8639 3.33333 11.3335 3.33333ZM2.8335 8.66667C2.43567 8.66667 2.05414 8.8247 1.77284 9.10601C1.49153 9.38731 1.3335 9.76884 1.3335 10.1667V10.352C1.33428 10.3983 1.33739 10.4446 1.34283 10.4907C1.39788 10.9867 1.57619 11.4611 1.8615 11.8707C2.40683 12.6493 3.44816 13.3333 5.3335 13.3333C6.24616 13.3333 6.96083 13.1733 7.5175 12.92C7.41623 12.5841 7.35623 12.2371 7.33883 11.8867C6.90883 12.14 6.2755 12.3333 5.3335 12.3333C3.71883 12.3333 3.0095 11.7667 2.68016 11.2967C2.49332 11.0274 2.37585 10.7162 2.33816 10.3907C2.33615 10.3732 2.3346 10.3556 2.3335 10.338V10.1667C2.3335 10.0341 2.38617 9.90688 2.47994 9.81311C2.57371 9.71935 2.70089 9.66667 2.8335 9.66667H7.8215C7.9875 9.34867 8.1915 9.054 8.4275 8.78867C8.23991 8.70786 8.03775 8.66634 7.8335 8.66667H2.8335ZM15.3335 11.6667C15.3335 10.6942 14.9472 9.76157 14.2596 9.07394C13.5719 8.38631 12.6393 8 11.6668 8C10.6944 8 9.76174 8.38631 9.0741 9.07394C8.38647 9.76157 8.00016 10.6942 8.00016 11.6667C8.00016 12.6391 8.38647 13.5718 9.0741 14.2594C9.76174 14.947 10.6944 15.3333 11.6668 15.3333C12.6393 15.3333 13.5719 14.947 14.2596 14.2594C14.9472 13.5718 15.3335 12.6391 15.3335 11.6667ZM12.0002 12L12.0008 13.6687C12.0008 13.7571 11.9657 13.8419 11.9032 13.9044C11.8407 13.9669 11.7559 14.002 11.6675 14.002C11.5791 14.002 11.4943 13.9669 11.4318 13.9044C11.3693 13.8419 11.3342 13.7571 11.3342 13.6687V12H9.66416C9.57576 12 9.49097 11.9649 9.42846 11.9024C9.36595 11.8399 9.33083 11.7551 9.33083 11.6667C9.33083 11.5783 9.36595 11.4935 9.42846 11.431C9.49097 11.3685 9.57576 11.3333 9.66416 11.3333H11.3335V9.66667C11.3335 9.57826 11.3686 9.49348 11.4311 9.43096C11.4936 9.36845 11.5784 9.33333 11.6668 9.33333C11.7552 9.33333 11.84 9.36845 11.9025 9.43096C11.965 9.49348 12.0002 9.57826 12.0002 9.66667V11.3333H13.6648C13.7532 11.3333 13.838 11.3685 13.9005 11.431C13.963 11.4935 13.9982 11.5783 13.9982 11.6667C13.9982 11.7551 13.963 11.8399 13.9005 11.9024C13.838 11.9649 13.7532 12 13.6648 12H12.0002Z" fill="#BBBBBB"/>
</svg>
