<svg width="24" height="24" viewBox="0 0 24 24" fill="none" xmlns="http://www.w3.org/2000/svg">
<rect width="24" height="24" rx="12" fill="#00ABE2"/>
<path fill-rule="evenodd" clip-rule="evenodd" d="M19 11.9997C19 11.867 18.9473 11.7399 18.8536 11.6461C18.7598 11.5523 18.6326 11.4997 18.5 11.4997H6.707L9.854 8.35366C9.94789 8.25977 10.0006 8.13243 10.0006 7.99966C10.0006 7.86688 9.94789 7.73954 9.854 7.64565C9.76011 7.55177 9.63277 7.49902 9.5 7.49902C9.36722 7.49902 9.23989 7.55177 9.146 7.64565L5.146 11.6457C5.09943 11.6921 5.06249 11.7473 5.03729 11.808C5.01208 11.8688 4.9991 11.9339 4.9991 11.9997C4.9991 12.0654 5.01208 12.1305 5.03729 12.1913C5.06249 12.252 5.09943 12.3072 5.146 12.3537L9.146 16.3537C9.23989 16.4475 9.36722 16.5003 9.5 16.5003C9.63277 16.5003 9.76011 16.4475 9.854 16.3537C9.94789 16.2598 10.0006 16.1324 10.0006 15.9997C10.0006 15.8669 9.94789 15.7395 9.854 15.6457L6.707 12.4997H18.5C18.6326 12.4997 18.7598 12.447 18.8536 12.3532C18.9473 12.2594 19 12.1323 19 11.9997Z" fill="white"/>
</svg>
