<svg width="16" height="16" viewBox="0 0 16 16" fill="none" xmlns="http://www.w3.org/2000/svg">
<path fill-rule="evenodd" clip-rule="evenodd" d="M8.59766 1.03858C8.48535 0.81104 8.2536 0.666992 7.99986 0.666992C7.74611 0.666992 7.51437 0.81104 7.40205 1.03858L5.49702 4.89797L1.23677 5.52067C0.985731 5.55736 0.777278 5.73337 0.699026 5.9747C0.620774 6.21604 0.686289 6.48088 0.868035 6.6579L3.95018 9.6599L3.22278 13.901C3.17989 14.1511 3.28272 14.4039 3.48803 14.553C3.69335 14.7022 3.96555 14.7218 4.19016 14.6037L7.99986 12.6002L11.8096 14.6037C12.0342 14.7218 12.3064 14.7022 12.5117 14.553C12.717 14.4039 12.8198 14.1511 12.7769 13.901L12.0495 9.6599L15.1317 6.6579C15.3134 6.48088 15.3789 6.21604 15.3007 5.9747C15.2224 5.73337 15.014 5.55736 14.7629 5.52067L10.5027 4.89797L8.59766 1.03858ZM6.53766 5.80208L7.99986 2.83983L9.46205 5.80208C9.55908 5.99864 9.74654 6.13495 9.96344 6.16665L13.2342 6.64473L10.868 8.94942C10.7108 9.10258 10.639 9.32334 10.6761 9.53969L11.2344 12.7948L8.31016 11.2569C8.1159 11.1548 7.88381 11.1548 7.68956 11.2569L4.76531 12.7948L5.3236 9.53969C5.3607 9.32334 5.28893 9.10258 5.13168 8.94942L2.76546 6.64473L6.03628 6.16665C6.25318 6.13495 6.44064 5.99864 6.53766 5.80208Z" fill="#BBBBBB"/>
</svg>
