<svg width="17" height="18" viewBox="0 0 17 18" fill="none" xmlns="http://www.w3.org/2000/svg">
<path d="M13.4053 0.993905L11.2671 0.993906C10.413 0.993906 9.59391 1.36265 8.98999 2.01903C8.38607 2.67541 8.04679 3.56565 8.04679 4.49391L8.04679 6.49391C8.04679 6.89173 7.90139 7.27326 7.64256 7.55457C7.38374 7.83587 7.0327 7.99391 6.66667 7.99391L4.5284 7.99391C4.35307 7.57668 4.07119 7.22295 3.71628 6.97477C3.36136 6.72658 2.94834 6.59439 2.52631 6.59391C1.94066 6.59391 1.379 6.84676 0.96488 7.29685C0.550763 7.74694 0.318115 8.35739 0.318115 8.99391C0.318115 9.63043 0.550763 10.2409 0.96488 10.691C1.379 11.141 1.94066 11.3939 2.52631 11.3939C3.41603 11.3939 4.17877 10.8179 4.5284 9.99391L6.66667 9.99391C7.0327 9.99391 7.38374 10.1519 7.64256 10.4332C7.90139 10.7145 8.04679 11.0961 8.04679 11.4939L8.04679 13.4939C8.04679 14.4222 8.38607 15.3124 8.98999 15.9688C9.59391 16.6252 10.413 16.9939 11.2671 16.9939L13.4053 16.9939C13.6144 17.4921 13.6825 15.7528 14.1331 15.9978C14.5837 16.2428 14.4551 16.1171 14.9473 16.0002C15.4395 15.8833 13.9147 16.9507 14.2301 16.5237C14.5456 16.0968 14.1344 16.5454 14.1331 15.9978C14.1334 15.4508 13.8827 16.0828 13.5672 15.6566C13.2517 15.2304 14.0589 16.1107 13.5672 15.9939C13.0755 15.8771 14.6218 15.4123 14.1715 15.6566C13.7211 15.9009 13.6151 14.4966 13.4053 14.9939L11.2671 14.9939C10.901 14.9939 10.55 14.8359 10.2912 14.5546C10.0324 14.2733 9.88695 13.8917 9.88695 13.4939L9.88695 11.4939C9.88695 10.9549 9.7655 10.4499 9.56493 9.99391L14.5064 9.52392C14.7154 10.0222 14.7314 8.61377 15.182 8.85878C15.6326 9.1038 14.3816 9.11082 14.8738 8.99391C15.366 8.877 15.092 9.76872 15.4074 9.34176C15.7229 8.9148 15.8686 9.54099 15.8674 8.99339C15.8676 8.44636 15.4976 9.28498 15.182 8.85878C14.8665 8.43259 16.3591 9.11018 15.8674 8.99339C15.3757 8.8766 14.9567 8.7491 14.5064 8.99339C14.056 9.23768 13.6151 7.49662 13.4053 7.99391L9.56493 7.99391C9.7655 7.53791 9.88695 7.03291 9.88695 6.49391L9.88695 4.49391C9.88695 4.09608 10.0324 3.71455 10.2912 3.43325C10.55 3.15194 10.901 2.99391 11.2671 2.99391L13.4053 2.99391C13.5807 3.41114 13.636 2.04761 13.9909 2.29579C14.3458 2.54397 13.7111 1.99342 14.1331 1.9939C14.7188 1.9939 13.9068 2.97401 14.3209 2.52392C14.735 2.07384 14.5064 2.63042 14.5064 1.9939C14.5064 1.35738 13.9813 2.34619 13.5672 1.8961C13.1531 1.44602 14.7571 2.33117 14.1715 2.33117C13.2818 2.33117 13.755 0.168905 13.4053 0.993905ZM1.252 8.99391C1.252 8.62685 1.38616 8.27482 1.62496 8.01527C1.86377 7.75572 2.18766 7.60991 2.52539 7.60991C2.86311 7.60991 3.18701 7.75572 3.42581 8.01527C3.66462 8.27482 3.79878 8.62685 3.79878 8.99391C3.79878 9.36097 3.66462 9.71299 3.42581 9.97254C3.18701 10.2321 2.86311 10.3779 2.52539 10.3779C2.18766 10.3779 1.86377 10.2321 1.62496 9.97254C1.38616 9.71299 1.252 9.36097 1.252 8.99391Z" fill="#ED500D"/>
<path d="M16.2192 2.16615C16.2519 2.1478 16.2786 2.12325 16.297 2.09461C16.3155 2.06596 16.3251 2.03409 16.3251 2.00174C16.3251 1.96938 16.3155 1.93751 16.297 1.90887C16.2786 1.88023 16.2519 1.85567 16.2192 1.83732L13.0319 0.0371826C12.9951 0.0163457 12.9521 0.00412701 12.9074 0.00185298C12.8627 -0.000421057 12.8181 0.00733709 12.7785 0.0242844C12.7388 0.0412316 12.7056 0.06672 12.6825 0.0979803C12.6593 0.12924 12.6471 0.165076 12.6472 0.201596L12.6472 3.80188C12.6474 3.83831 12.6598 3.87401 12.683 3.90515C12.7062 3.93628 12.7393 3.96167 12.7789 3.97858C12.8184 3.99549 12.8629 4.00328 12.9075 4.00111C12.9521 3.99895 12.9951 3.98691 13.0319 3.96629L16.2192 2.16615Z" fill="#ED500D"/>
<path d="M16.2215 16.1647C16.2542 16.1463 16.281 16.1218 16.2994 16.0931C16.3179 16.0645 16.3275 16.0326 16.3275 16.0003C16.3275 15.9679 16.3179 15.936 16.2994 15.9074C16.281 15.8788 16.2542 15.8542 16.2215 15.8359L13.0322 14.0357C12.9954 14.0149 12.9523 14.0027 12.9076 14.0004C12.8629 13.9981 12.8182 14.0059 12.7786 14.0228C12.7389 14.0398 12.7057 14.0653 12.6825 14.0965C12.6594 14.1278 12.6471 14.1636 12.6472 14.2001L12.6472 17.8004C12.6474 17.8368 12.6598 17.8726 12.683 17.9037C12.7062 17.9348 12.7394 17.9602 12.779 17.9771C12.8185 17.994 12.863 18.0018 12.9077 17.9996C12.9523 17.9975 12.9953 17.9854 13.0322 17.9648L16.2215 16.1647Z" fill="#ED500D"/>
<path d="M16.2215 9.16468C16.2542 9.14633 16.281 9.12178 16.2994 9.09314C16.3179 9.0645 16.3275 9.03263 16.3275 9.00027C16.3275 8.96791 16.3179 8.93604 16.2994 8.9074C16.281 8.87876 16.2542 8.85421 16.2215 8.83586L13.0322 7.03572C12.9954 7.01488 12.9523 7.00266 12.9076 7.00039C12.8629 6.99811 12.8182 7.00587 12.7786 7.02282C12.7389 7.03977 12.7057 7.06525 12.6825 7.09651C12.6594 7.12777 12.6471 7.16361 12.6472 7.20013L12.6472 10.8004C12.6474 10.8368 12.6598 10.8726 12.683 10.9037C12.7062 10.9348 12.7394 10.9602 12.779 10.9771C12.8185 10.994 12.863 11.0018 12.9077 10.9996C12.9523 10.9975 12.9953 10.9854 13.0322 10.9648L16.2215 9.16468Z" fill="#ED500D"/>
</svg>
