<svg width="16" height="16" viewBox="0 0 16 16" fill="none" xmlns="http://www.w3.org/2000/svg">
<path d="M2.6665 2.66699H6.6665M9.33317 2.66699H13.3332" stroke="#BBBBBB" stroke-width="1.5" stroke-linecap="round" stroke-linejoin="round"/>
<path d="M5.33317 5.33398H3.99984C3.26346 5.33398 2.6665 5.93094 2.6665 6.66732V12.0007C2.6665 12.737 3.26346 13.334 3.99984 13.334H5.33317C6.06955 13.334 6.6665 12.737 6.6665 12.0007V6.66732C6.6665 5.93094 6.06955 5.33398 5.33317 5.33398Z" stroke="#BBBBBB" stroke-width="1.5" stroke-linecap="round" stroke-linejoin="round"/>
<path d="M11.9997 5.33398H10.6663C9.92996 5.33398 9.33301 5.93094 9.33301 6.66732V8.00065C9.33301 8.73703 9.92996 9.33398 10.6663 9.33398H11.9997C12.7361 9.33398 13.333 8.73703 13.333 8.00065V6.66732C13.333 5.93094 12.7361 5.33398 11.9997 5.33398Z" stroke="#BBBBBB" stroke-width="1.5" stroke-linecap="round" stroke-linejoin="round"/>
</svg>
