<svg width="16" height="16" viewBox="0 0 16 16" fill="none" xmlns="http://www.w3.org/2000/svg">
<path d="M6.66683 6.66699C7.03502 6.66699 7.3335 6.96547 7.3335 7.33366V11.3337C7.3335 11.7018 7.03502 12.0003 6.66683 12.0003C6.29864 12.0003 6.00016 11.7018 6.00016 11.3337V7.33366C6.00016 6.96547 6.29864 6.66699 6.66683 6.66699Z" fill="#BBBBBB"/>
<path d="M10.0002 11.3337V7.33366C10.0002 6.96547 9.70169 6.66699 9.3335 6.66699C8.96531 6.66699 8.66683 6.96547 8.66683 7.33366V11.3337C8.66683 11.7018 8.96531 12.0003 9.3335 12.0003C9.70169 12.0003 10.0002 11.7018 10.0002 11.3337Z" fill="#BBBBBB"/>
<path fill-rule="evenodd" clip-rule="evenodd" d="M4.66683 3.33366V2.66699C4.66683 2.13656 4.87754 1.62785 5.25262 1.25278C5.62769 0.877706 6.1364 0.666992 6.66683 0.666992H9.3335C9.86393 0.666992 10.3726 0.877706 10.7477 1.25278C11.1228 1.62785 11.3335 2.13656 11.3335 2.66699V3.33366H14.0002C14.3684 3.33366 14.6668 3.63214 14.6668 4.00032C14.6668 4.36851 14.3684 4.66699 14.0002 4.66699H13.3335V13.3337C13.3335 13.8641 13.1228 14.3728 12.7477 14.7479C12.3726 15.1229 11.8639 15.3337 11.3335 15.3337H4.66683C4.1364 15.3337 3.62769 15.1229 3.25262 14.7479C2.87754 14.3728 2.66683 13.8641 2.66683 13.3337V4.66699H2.00016C1.63197 4.66699 1.3335 4.36851 1.3335 4.00032C1.3335 3.63214 1.63197 3.33366 2.00016 3.33366H4.66683ZM6.19543 2.19559C6.32045 2.07056 6.49002 2.00033 6.66683 2.00033H9.3335C9.51031 2.00033 9.67988 2.07056 9.8049 2.19559C9.92993 2.32061 10.0002 2.49018 10.0002 2.66699V3.33366H6.00016V2.66699C6.00016 2.49018 6.0704 2.32061 6.19543 2.19559ZM4.00016 4.66699V13.3337C4.00016 13.5105 4.0704 13.68 4.19543 13.8051C4.32045 13.9301 4.49002 14.0003 4.66683 14.0003H11.3335C11.5103 14.0003 11.6799 13.9301 11.8049 13.8051C11.9299 13.68 12.0002 13.5105 12.0002 13.3337V4.66699H4.00016Z" fill="#BBBBBB"/>
</svg>
