<svg width="18" height="18" viewBox="0 0 18 18" fill="none" xmlns="http://www.w3.org/2000/svg">
<path d="M7.5 9.75H3C2.80109 9.75 2.61032 9.82902 2.46967 9.96967C2.32902 10.1103 2.25 10.3011 2.25 10.5V15C2.25 15.1989 2.32902 15.3897 2.46967 15.5303C2.61032 15.671 2.80109 15.75 3 15.75H7.5C7.69891 15.75 7.88968 15.671 8.03033 15.5303C8.17098 15.3897 8.25 15.1989 8.25 15V10.5C8.25 10.3011 8.17098 10.1103 8.03033 9.96967C7.88968 9.82902 7.69891 9.75 7.5 9.75ZM6.75 14.25H3.75V11.25H6.75V14.25ZM15 2.25H10.5C10.3011 2.25 10.1103 2.32902 9.96967 2.46967C9.82902 2.61032 9.75 2.80109 9.75 3V7.5C9.75 7.69891 9.82902 7.88968 9.96967 8.03033C10.1103 8.17098 10.3011 8.25 10.5 8.25H15C15.1989 8.25 15.3897 8.17098 15.5303 8.03033C15.671 7.88968 15.75 7.69891 15.75 7.5V3C15.75 2.80109 15.671 2.61032 15.5303 2.46967C15.3897 2.32902 15.1989 2.25 15 2.25ZM14.25 6.75H11.25V3.75H14.25V6.75ZM15 12H13.5V10.5C13.5 10.3011 13.421 10.1103 13.2803 9.96967C13.1397 9.82902 12.9489 9.75 12.75 9.75C12.5511 9.75 12.3603 9.82902 12.2197 9.96967C12.079 10.1103 12 10.3011 12 10.5V12H10.5C10.3011 12 10.1103 12.079 9.96967 12.2197C9.82902 12.3603 9.75 12.5511 9.75 12.75C9.75 12.9489 9.82902 13.1397 9.96967 13.2803C10.1103 13.421 10.3011 13.5 10.5 13.5H12V15C12 15.1989 12.079 15.3897 12.2197 15.5303C12.3603 15.671 12.5511 15.75 12.75 15.75C12.9489 15.75 13.1397 15.671 13.2803 15.5303C13.421 15.3897 13.5 15.1989 13.5 15V13.5H15C15.1989 13.5 15.3897 13.421 15.5303 13.2803C15.671 13.1397 15.75 12.9489 15.75 12.75C15.75 12.5511 15.671 12.3603 15.5303 12.2197C15.3897 12.079 15.1989 12 15 12ZM7.5 2.25H3C2.80109 2.25 2.61032 2.32902 2.46967 2.46967C2.32902 2.61032 2.25 2.80109 2.25 3V7.5C2.25 7.69891 2.32902 7.88968 2.46967 8.03033C2.61032 8.17098 2.80109 8.25 3 8.25H7.5C7.69891 8.25 7.88968 8.17098 8.03033 8.03033C8.17098 7.88968 8.25 7.69891 8.25 7.5V3C8.25 2.80109 8.17098 2.61032 8.03033 2.46967C7.88968 2.32902 7.69891 2.25 7.5 2.25ZM6.75 6.75H3.75V3.75H6.75V6.75Z" fill="black"/>
</svg>
