<svg width="383" height="159" viewBox="0 0 383 159" fill="none" xmlns="http://www.w3.org/2000/svg">
<g clip-path="url(#clip0_1910_28456)">
<path d="M257.323 32.144C267.536 87.7453 220.353 133.035 164.839 143.128C105.591 153.9 37.5961 133.414 26.6964 74.0738C17.5907 24.5007 91.909 24.5487 141.405 15.5499C186.365 7.37587 249.052 -12.886 257.323 32.144Z" fill="#FF9D30" fill-opacity="0.1"/>
<path d="M170.745 83.6045V93.9405H180.985V83.6045H170.745ZM186.116 83.6045V93.9405H196.356V83.6045H186.116ZM201.465 83.6045V93.9405H211.727V83.6045H201.465ZM216.836 83.6045V93.9405H227.076V83.6045H216.836ZM232.207 83.6045V93.9405H242.447V83.6045H232.207ZM170.745 99.0971V109.456H180.985V99.0971H170.745ZM186.116 99.0971V109.456H196.356V99.0971H186.116ZM201.465 99.0971V109.456H211.727V99.0971H201.465ZM216.836 99.0971V109.456H227.076V99.0971H216.836ZM232.207 99.0971V109.456H242.447V99.0971H232.207ZM170.745 114.613V124.949H180.985V114.613H170.745ZM186.116 114.613V124.949H227.076V114.613H186.116ZM232.207 114.613V124.949H242.447V114.613H232.207Z" fill="white" stroke="#FF9D30" stroke-width="2" stroke-linecap="round" stroke-linejoin="round"/>
<path d="M251.02 130.582V78.7503C251.02 77.5549 250.54 76.4085 249.686 75.5633C248.831 74.718 247.673 74.2432 246.464 74.2432H166.728C165.519 74.2432 164.36 74.718 163.506 75.5633C162.651 76.4085 162.171 77.5549 162.171 78.7503V130.582C162.171 131.778 162.651 132.924 163.506 133.769C164.36 134.614 165.519 135.089 166.728 135.089H246.464C247.673 135.089 248.831 134.614 249.686 133.769C250.54 132.924 251.02 131.778 251.02 130.582Z" stroke="#FF9D30" stroke-width="2" stroke-linecap="round" stroke-linejoin="round"/>
<path d="M188.912 56.5817L200.701 45.0019L188.912 33.422L192.506 29.8926L207.89 45.0019L192.506 60.1112L188.912 56.5817Z" fill="#E6E6E6"/>
<path d="M160.446 40.2539H155.27V44.5708H160.446V40.2539Z" fill="#E6E6E6"/>
<path d="M179.423 40.2539H174.248V44.5708H179.423V40.2539Z" fill="#E6E6E6"/>
<path d="M169.934 40.2539H164.759V44.5708H169.934V40.2539Z" fill="#E6E6E6"/>
<path d="M149.232 56.481L137.431 44.5703L149.22 32.6596L145.626 29.0293L130.254 44.5703L145.638 60.1113L149.232 56.481Z" fill="#E6E6E6"/>
<path d="M188.912 54.7544L200.701 42.8438L188.912 30.933L192.506 27.3027L207.89 42.8438L192.506 58.3847L188.912 54.7544Z" fill="#FF9D30"/>
<path d="M155.27 43.7067H160.081V38.5264H155.27L155.27 43.7067ZM179.423 38.5264H174.612V43.7067H179.423V38.5264ZM164.941 43.7067H169.752V38.5264H164.941V43.7067Z" fill="#FF9D30"/>
<path d="M149.232 53.9919L137.431 42.412L149.22 30.8322L145.626 27.3027L130.254 42.412L145.638 57.5213L149.232 53.9919Z" fill="#FF9D30"/>
<path d="M46.8091 149.943L51.9112 151.181L59.0966 132.014L51.5665 130.187L46.8091 149.943Z" fill="#A0616A"/>
<path d="M44.3931 154.543L45.9598 148.037L55.9418 150.46C57.6217 150.87 59.0711 151.931 59.972 153.413C60.873 154.894 61.1518 156.673 60.7475 158.361L60.7129 158.504L44.3931 154.543Z" fill="#2F2E41"/>
<path d="M69.3948 153.432L74.6438 153.432L77.1406 133.106L69.394 133.107L69.3948 153.432Z" fill="#A0616A"/>
<path d="M68.123 151.78L78.3927 151.779H78.393C80.1223 151.779 81.7807 152.469 83.0035 153.697C84.2263 154.924 84.9133 156.589 84.9134 158.325V158.473L68.1234 158.473L68.123 151.78Z" fill="#2F2E41"/>
<path d="M68.1628 146.4L69.0257 114.779L67.8633 101.956L65.5951 111.824L55.6836 144.273L47.1392 142.015L57.0348 107.028L54.8856 84.5867L61.0605 80.6016L61.1438 80.6167L82.2409 84.5208L77.1446 145.498L68.1628 146.4Z" fill="#2F2E41"/>
<path d="M76.5127 88.9223C74.8137 88.9223 72.8268 88.3728 70.615 86.8055C63.5375 81.7907 55.0986 87.1854 55.014 87.2399L54.6714 87.4637L54.6834 87.0536C54.692 86.7614 55.5396 57.7205 55.5396 48.3755C55.5396 38.7208 61.8138 31.6715 63.7369 29.7411C65.6243 27.8459 67.2125 27.8878 69.223 27.9403C69.5694 27.9491 69.9305 27.9588 70.3103 27.9588C72.9376 27.9588 75.4919 30.4928 75.5993 30.6007L75.6507 30.6523L75.6602 30.7245L82.9504 85.8321L82.8946 85.903C82.8609 85.9463 80.4669 88.9223 76.5127 88.9223Z" fill="#CCCCCC"/>
<path d="M80.6529 19.2129C83.4385 14.0969 81.5657 7.68251 76.4699 4.88588C71.374 2.08925 64.9848 3.96942 62.1991 9.08537C59.4135 14.2013 61.2863 20.6158 66.3821 23.4124C71.478 26.209 77.8672 24.3288 80.6529 19.2129Z" fill="#A0616A"/>
<path d="M87.5237 97.7467C87.0262 97.3597 86.6193 96.8678 86.3316 96.3058C86.044 95.7438 85.8825 95.1252 85.8587 94.4938C85.8349 93.8624 85.9493 93.2334 86.1938 92.6511C86.4383 92.0689 86.807 91.5476 87.2739 91.1238L81.3022 76.9824L89.1213 78.4272L93.5934 91.6346C94.2504 92.4693 94.5797 93.5169 94.5187 94.579C94.4578 95.6411 94.0109 96.6438 93.2627 97.3972C92.5145 98.1506 91.5171 98.6023 90.4594 98.6667C89.4016 98.7312 88.3571 98.4038 87.5237 97.7467Z" fill="#A0616A"/>
<path d="M85.8318 89.697L75.0414 67.5979L70.3101 50.9653L70.3138 36.5161C70.3245 36.4591 71.4368 30.8386 75.5593 31.2273C79.2976 31.5908 81.311 33.4259 82.2915 37.3636C83.1245 40.7086 81.9853 50.6324 81.875 51.5689C82.5983 53.2907 93.4504 79.2494 91.6538 82.3753C91.5866 82.4971 91.4887 82.599 91.3698 82.6708L93.2928 86.7466L85.8318 89.697Z" fill="#CCCCCC"/>
<path d="M70.0817 18.1262C71.3422 18.2909 72.2931 16.9961 72.7341 15.7991C73.1751 14.6022 73.5112 13.2088 74.6071 12.5622C76.1044 11.6789 78.0202 12.7413 79.7324 12.4499C81.6661 12.1207 82.9233 10.0634 83.0219 8.09686C83.1204 6.13036 82.3409 4.239 81.5761 2.4259L81.3091 4.67917C81.3448 3.91548 81.1847 3.15537 80.8442 2.47154C80.5036 1.78771 79.994 1.20303 79.3641 0.773438L79.7082 4.07976C79.635 3.6236 79.4728 3.18646 79.2308 2.79341C78.9889 2.40036 78.672 2.05914 78.2984 1.78935C77.9247 1.51956 77.5017 1.32651 77.0536 1.22126C76.6054 1.11601 76.141 1.10065 75.687 1.17605L75.7412 3.14609C73.5078 2.87947 71.2549 2.61247 69.0149 2.8156C66.7749 3.01872 64.5193 3.73023 62.8215 5.21126C60.282 7.42664 59.3545 11.0745 59.6659 14.4376C59.9773 17.8007 61.3601 20.9601 62.8013 24.0121C63.1639 24.78 63.6655 25.6465 64.5063 25.7443C65.2618 25.8322 65.9531 25.1981 66.188 24.4719C66.3689 23.7267 66.3619 22.948 66.1676 22.2063C65.9551 21.0727 65.6872 19.914 65.887 18.7781C66.0868 17.6422 66.9008 16.5197 68.0413 16.3805C69.1819 16.2413 70.3489 17.5502 69.8006 18.5638L70.0817 18.1262Z" fill="#2F2E41"/>
<path d="M330.361 96.3386C330.01 95.9369 329.751 95.4629 329.603 94.95C329.454 94.437 329.419 93.8975 329.5 93.3695C329.582 92.8415 329.777 92.3379 330.074 91.894C330.37 91.4502 330.76 91.077 331.215 90.8007L328.524 78.0977L334.783 80.5597L336.379 92.2452C336.791 93.0442 336.896 93.967 336.675 94.8387C336.455 95.7105 335.923 96.4707 335.181 96.9753C334.439 97.4799 333.539 97.6937 332.651 97.5764C331.762 97.459 330.948 97.0186 330.361 96.3386V96.3386Z" fill="#FFB8B8"/>
<path d="M329.651 86.427L329.617 86.3021C326.234 73.738 322.736 60.75 318.466 46.6085L318.438 46.5158L318.532 46.4606C320.912 45.0663 324.49 45.1592 326.853 46.6764C327.923 47.3683 328.756 48.3735 329.237 49.5561C329.719 50.7386 329.828 52.0413 329.548 53.2877L332.662 69.5902C333.928 74.9192 335.239 80.4352 336.491 85.8741L336.527 86.0283L336.333 86.0407C334.052 86.1863 331.696 86.3368 329.809 86.42L329.651 86.427Z" fill="#CCCCCC"/>
<path d="M300.895 154.048H296.457L294.345 136.862H300.895V154.048Z" fill="#FFB8B8"/>
<path d="M302.028 158.367H287.717V158.186C287.719 156.703 288.306 155.282 289.351 154.233C290.395 153.185 291.811 152.595 293.287 152.594H302.028L302.028 158.367Z" fill="#2F2E41"/>
<path d="M342.716 150.373L338.487 151.725L331.277 135.995L337.519 133.998L342.716 150.373Z" fill="#FFB8B8"/>
<path d="M331.466 158.505L331.411 158.331C330.964 156.918 331.094 155.385 331.772 154.068C332.45 152.751 333.62 151.757 335.027 151.306L343.354 148.642L345.1 154.143L331.466 158.505Z" fill="#2F2E41"/>
<path d="M320.253 35.0947C325.163 35.0947 329.144 31.0983 329.144 26.1684C329.144 21.2386 325.163 17.2422 320.253 17.2422C315.343 17.2422 311.362 21.2386 311.362 26.1684C311.362 31.0983 315.343 35.0947 320.253 35.0947Z" fill="#FFB8B8"/>
<path d="M324.245 24.5147C324.295 20.9144 322.794 17.3488 320.474 15.5561C319.38 14.6862 318.02 14.2242 316.625 14.249C315.23 14.2737 313.886 14.7837 312.824 15.6918C310.539 17.5662 309.109 21.1838 309.23 24.7811C314.349 24.7957 319.468 24.8103 324.245 24.5147Z" fill="#2F2E41"/>
<path d="M303.429 148.517L303.251 148.5C299.39 148.119 295.398 147.726 291.625 147.681L291.419 147.679L291.447 147.475C292.341 140.974 292.72 134.217 293.087 127.681C293.449 121.228 293.823 114.556 294.695 108.218C295.063 106.521 295.423 104.845 295.781 103.174C298.744 89.3479 301.543 76.2885 307.32 63.3613L307.375 63.2393L307.507 63.2552C312.928 63.9138 318.137 65.8993 322.174 68.846L322.252 68.903L322.248 69C322.17 71.008 322.09 73.0837 322.209 74.9745C324.041 77.5305 325.255 80.4798 325.755 83.5887C326.255 86.6976 326.027 89.8806 325.088 92.8855C326.678 98.219 328.321 103.732 329.998 109.171C334.07 120.378 338.284 131.977 342.603 143.733L342.674 143.926L342.475 143.973C339.367 144.705 336.161 145.461 332.999 145.754L332.879 145.765L332.823 145.659C324.758 130.591 318.199 114.758 313.242 98.3924C312.163 101.697 310.608 104.679 309.102 107.569C307.661 110.196 306.394 112.916 305.307 115.71C304.641 121.206 304.464 127.16 304.293 132.917C304.131 138.361 303.979 143.503 303.449 148.338L303.429 148.517Z" fill="#2F2E41"/>
<path d="M317.218 15.7206C321.071 14.887 325.334 15.68 328.361 18.2905C331.388 20.901 332.925 25.4171 331.681 29.2902C330.438 33.1633 326.216 35.8884 322.4 34.8882C323.493 31.7945 322.262 27.9962 319.59 26.2143C316.42 24.101 315.547 19.0558 317.218 15.7206Z" fill="#2F2E41"/>
<path d="M321.896 69.2335L321.755 69.1691C316.839 66.9172 312.018 65.1893 307.501 63.6127L307.363 63.5828L307.362 63.1796L307.452 63.211C307.471 63.1691 307.492 63.1215 307.514 63.0742C307.575 62.9372 307.618 62.8438 307.653 62.7821L307.652 62.7815C308.029 62.0112 308.328 61.2668 308.618 60.5468C308.916 59.8038 309.225 59.0367 309.623 58.225C308.657 57.2526 307.996 56.0178 307.721 54.6726C307.446 53.3275 307.569 51.931 308.075 50.6552C309.073 48.281 311.617 46.4319 314.29 46.1251C315.27 43.418 317.452 37.7298 317.452 37.7298C317.452 37.7298 322.042 37.6033 323.888 37.3682L323.919 37.3643L323.949 37.371C327.978 38.2574 331.342 42.0853 332.13 46.6798C332.794 50.5576 331.785 54.9932 329.289 59.1694C328.008 61.2117 326.592 63.1652 325.05 65.0166C323.926 66.4281 322.864 67.7612 321.982 69.1038L321.896 69.2335Z" fill="#CCCCCC"/>
<path d="M330.796 21.0106C328.098 20.6063 325.98 17.8377 326.286 15.1166C326.593 12.3955 329.274 10.172 331.993 10.383C334.713 10.5941 337.022 13.2048 336.908 15.9409C336.795 18.677 334.24 21.5268 330.796 21.0106Z" fill="#2F2E41"/>
<path d="M330.374 19.2466C327.677 18.8423 325.558 16.0736 325.865 13.3525C325.999 12.427 326.364 11.5505 326.926 10.8048C327.488 10.0591 328.229 9.46843 329.08 9.08789C326.905 9.56596 325.032 11.4693 324.779 13.716C324.472 16.4371 326.591 19.2057 329.288 19.61C330.294 19.7684 331.323 19.6238 332.247 19.1946C331.631 19.3244 330.997 19.342 330.374 19.2466Z" fill="#2F2E41"/>
<path d="M278.044 67.2113C278.304 66.7453 278.663 66.3422 279.095 66.0305C279.527 65.7188 280.022 65.506 280.545 65.4072C281.068 65.3083 281.606 65.3258 282.122 65.4583C282.638 65.5909 283.118 65.8353 283.529 66.1744L294.563 59.3945L294.336 66.1395L283.893 71.5437C283.28 72.1996 282.448 72.6068 281.556 72.6883C280.664 72.7698 279.773 72.5199 279.052 71.9859C278.331 71.4518 277.83 70.6709 277.644 69.7909C277.458 68.9109 277.6 67.9931 278.044 67.2113V67.2113Z" fill="#FFB8B8"/>
<path d="M287.115 63.2358L287.221 63.1624C297.894 55.7735 308.926 48.1353 320.785 39.3816L320.862 39.3242L320.945 39.395C323.048 41.1833 324.153 44.6005 323.515 47.3434C323.222 48.5867 322.555 49.7095 321.605 50.5598C320.655 51.41 319.468 51.9466 318.204 52.0969L303.931 60.4766C299.348 63.4507 294.604 66.529 289.914 69.5267L289.781 69.6116L289.704 69.4322C288.808 67.3221 287.881 65.1422 287.175 63.3832L287.115 63.2358Z" fill="#CCCCCC"/>
<path d="M138.285 158.774H0.362004C0.265994 158.774 0.173917 158.735 0.106028 158.667C0.0381393 158.599 0 158.507 0 158.41C0 158.314 0.0381393 158.221 0.106028 158.153C0.173917 158.085 0.265994 158.047 0.362004 158.047H138.285C138.381 158.047 138.474 158.085 138.541 158.153C138.609 158.221 138.647 158.314 138.647 158.41C138.647 158.507 138.609 158.599 138.541 158.667C138.474 158.735 138.381 158.774 138.285 158.774Z" fill="#3F3D56"/>
<path d="M382.638 158.774H244.715C244.619 158.774 244.526 158.735 244.459 158.667C244.391 158.599 244.353 158.507 244.353 158.41C244.353 158.314 244.391 158.221 244.459 158.153C244.526 158.085 244.619 158.047 244.715 158.047H382.638C382.734 158.047 382.826 158.085 382.894 158.153C382.962 158.221 383 158.314 383 158.41C383 158.507 382.962 158.599 382.894 158.667C382.826 158.735 382.734 158.774 382.638 158.774Z" fill="#3F3D56"/>
</g>
<defs>
<clipPath id="clip0_1910_28456">
<rect width="383" height="158" fill="white" transform="translate(0 0.773438)"/>
</clipPath>
</defs>
</svg>
